<svg stroke-miterlimit="10" style="fill-rule:nonzero;clip-rule:evenodd;stroke-linecap:round;stroke-linejoin:round" viewBox="689.2 85.05 86.623 85.05" xml:space="preserve" xmlns="http://www.w3.org/2000/svg" xmlns:vectornator="http://vectornator.io"><clipPath id="a"><path d="M689.2 85.05h86.623v85.05H689.2z"/></clipPath><g vectornator:layerName="Layer"><g vectornator:layerName="Group 24" clip-path="url(#a)"><g vectornator:layerName="Group 1"><path d="M690.773 85.05h85.05v85.05h-85.05V85.05Z" fill="#fff" vectornator:layerName="Rectangle 1"/><path d="M745.383 129.139c4.717 1.497 7.773 2.892 9.493 3.394 11.684 3.409 18.057 20.398 3.802 25.375-7.615 2.659-11.38-2.26-15.101-7.123-2.855-3.731-5.685-7.429-10.209-7.642-10.65-.502-9.486 12.99-16.955 15.992-11.425 4.591-1.685-9.872-3.578-13.542-1.808-3.507-10.043.343-11.233-4.137-1.227-4.621 8.561-7.17 4.793-12.727-2.487-3.667-18.743-6.751-15.852-14.397.939-2.484 4.377-4.543 6.504-5.885 12.729-8.024 12.652 12.839 23.008 11.256 8.873-1.356 17.297-27.61 24.675-24.289 3.038 1.368 6.794 9.002-3.266 20.236-1.59 1.775-3.437 3.589-3.279 6.238.111 1.841-.199 4.902 7.198 7.251Z" fill="#f1f1f1" stroke="#f1f1f1" stroke-width="2" vectornator:layerName="Curve 1"/></g><path d="M714.422 119.201c-.298-1.648-3.143-7.759-12.088-9.94" fill="#94481a" stroke="#94481a" stroke-width="5" vectornator:layerName="Curve 9"/><path d="M713.216 143.33c0-2.356 1.807-4.265 4.036-4.265 2.229 0 4.036 1.909 4.036 4.265 0 2.355-1.807 4.265-4.036 4.265-2.229 0-4.036-1.91-4.036-4.265Z" fill="#0d262c" vectornator:layerName="Oval 1"/><path d="M733.298 143.33c0-2.356 1.807-4.265 4.036-4.265 2.229 0 4.036 1.909 4.036 4.265 0 2.355-1.807 4.265-4.036 4.265-2.229 0-4.036-1.91-4.036-4.265Z" fill="#0d262c" vectornator:layerName="Oval 2"/><path d="M711.747 118.901h36.666l-9.464 17.636-22.242-.415-2.626-9.119-2.334-8.102Z" fill="#94481a" vectornator:layerName="Rectangle 1"/></g></g></svg>