<svg stroke-miterlimit="10" style="fill-rule:nonzero;clip-rule:evenodd;stroke-linecap:round;stroke-linejoin:round" viewBox="690.773 170.1 85.05 85.05" xml:space="preserve" xmlns="http://www.w3.org/2000/svg" xmlns:vectornator="http://vectornator.io"><clipPath id="a"><path d="M690.773 170.1h85.05v85.05h-85.05z"/></clipPath><g vectornator:layerName="Layer"><g vectornator:layerName="Group 25" clip-path="url(#a)"><g vectornator:layerName="Group 21"><g vectornator:layerName="Group 1"><path d="M690.773 170.1h85.05v85.05h-85.05V170.1Z" fill="#fff" vectornator:layerName="Rectangle 1"/><path d="M740.602 200.191c4.08-2.802 7.057-4.356 8.51-5.405 9.867-7.125 27.188-1.717 22.358 12.588-2.58 7.642-8.774 7.591-14.897 7.54-4.698-.039-9.355-.078-12.302 3.361-6.938 8.095 4.423 15.465 2.203 23.203-3.395 11.835-8.824-4.735-12.883-5.497-3.878-.727-5.899 8.136-10.165 6.323-4.4-1.87-.398-11.16-7.099-11.6-4.42-.291-16.84 10.642-21.097 3.664-1.383-2.267-.897-6.245-.648-8.747 1.488-14.974 17.903-2.097 23.016-11.241 4.38-7.834-11.161-30.609-4.008-34.391 2.946-1.557 11.276.169 13.961 15.008.424 2.346.72 4.917 2.908 6.419 1.52 1.044 3.746 3.169 10.143-1.225Z" fill="#f1f1f1" stroke="#f1f1f1" stroke-width="2" vectornator:layerName="Curve 1"/></g></g><path d="M721.34 206.996h15.621s8.358 10.941 2.778 19.365c-.194.293-19.644.253-19.911-.05-5.55-6.292 1.512-19.315 1.512-19.315Z" fill="#0d262c" stroke="#0d262c" stroke-linecap="butt" stroke-width="5" vectornator:layerName="Rectangle 8"/><path d="M722.128 206.144c1.846-11.248 2.654-12.015 6.647-12.032 5.588-.023 5.791-.075 8.281 12.884" fill="none" stroke="#94481a" stroke-width="2" vectornator:layerName="Curve 8"/><g vectornator:layerName="Group 22"><path d="M721.34 206.996h15.621s8.358 10.941 2.778 19.365c-.194.293-19.644.253-19.911-.05-5.55-6.292 1.512-19.315 1.512-19.315Z" fill="#0d262c" stroke="#0d262c" stroke-linecap="butt" stroke-width="5" vectornator:layerName="Rectangle 8"/><path d="M722.128 206.144c1.846-11.248 2.654-12.015 6.647-12.032 5.588-.023 5.791-.075 8.281 12.884" fill="none" stroke="#94481a" stroke-width="2" vectornator:layerName="Curve 8"/></g><g vectornator:layerName="Group 23"><path d="M735.523 214.765h9.551s5.11 6.596 1.698 11.675c-.119.177-12.01.153-12.173-.03-3.393-3.793.924-11.645.924-11.645Z" fill="#2e4e55" stroke="#2e4e55" stroke-linecap="butt" stroke-width="5" vectornator:layerName="Rectangle 8"/><path d="M736.005 214.251c1.129-6.781 1.623-7.244 4.064-7.254 3.416-.014 3.541-.045 5.063 7.768" fill="none" stroke="#94481a" vectornator:layerName="Curve 8"/></g></g></g></svg>