<svg stroke-miterlimit="10" style="fill-rule:nonzero;clip-rule:evenodd;stroke-linecap:round;stroke-linejoin:round" viewBox="690.2 261.817 85.05 85.05" xml:space="preserve" xmlns="http://www.w3.org/2000/svg" xmlns:vectornator="http://vectornator.io"><clipPath id="a"><path d="M690.2 261.817h85.05v85.05H690.2z"/></clipPath><g vectornator:layerName="Layer"><g vectornator:layerName="Group 29" clip-path="url(#a)"><g vectornator:layerName="Group 28"><g vectornator:layerName="Group 27"><path d="M728.289 282.272c-.464.007-1.016.102-1.432.275-1.049.437-2.377 1.482-2.809 2.561-.516 1.289-.682 2.798-1.873 3.691-.303.227-.584.213-.936.33-.199.066-.445.192-.689.193-2.533.009-5.067-.009-7.601 0-.231.001-.489.216-.661.33-1.183.789-.867 3.193.799 3.195 13.458.018 26.916.019 40.374.028.126 0 .416-.057.523-.11 1.294-.648 1.506-2.949-.138-3.36-.068-.017-.181-.055-.247-.055-2.507-.018-5.013-.01-7.519-.028-.29-.002-.764-.04-1.019-.193-.505-.303-1-.502-1.377-1.046-.322-.465-.358-1.048-.606-1.543-.251-.503-.45-1.153-.661-1.679-.099-.249-.401-.512-.578-.717-.7-.807-1.539-1.387-2.561-1.679-.299-.086-.654-.164-.964-.166-3.342-.018-6.684-.077-10.025-.027Z" fill="#94481a" vectornator:layerName="Group 26"/><path d="M719.087 294.897c-.188 1.919 4.486 30.278 5.458 31.075.916.751 18.229.581 19.214-.491 1.06-1.153 4.449-28.676 4.227-30.584" fill="none" stroke="#94481a" stroke-width="4" vectornator:layerName="Curve 8"/><path d="M726.145 300.972c.059.643 2.371 14.793 2.427 14.793" fill="none" stroke="#f1f1f1" stroke-width="5" vectornator:layerName="Curve 9"/><path d="M741.339 300.902c-.128.634-1.96 14.848-1.906 14.863" fill="none" stroke="#f1f1f1" stroke-width="5" vectornator:layerName="Curve 10"/></g></g></g></g></svg>