<svg stroke-miterlimit="10" style="fill-rule:nonzero;clip-rule:evenodd;stroke-linecap:round;stroke-linejoin:round" viewBox="585.759 0 85.05 85.05" xml:space="preserve" xmlns="http://www.w3.org/2000/svg" xmlns:vectornator="http://vectornator.io"><clipPath id="a"><path d="M585.759 0h85.05v85.05h-85.05z"/></clipPath><g vectornator:layerName="Layer"><g vectornator:layerName="Group 14" clip-path="url(#a)"><g vectornator:layerName="Group 1"><path d="M585.759 0h85.05v85.05h-85.05V0Z" fill="#fff" vectornator:layerName="Rectangle 1"/><path d="M609.886 37.285c-3.651-3.34-5.838-5.89-7.188-7.069-9.17-8.003-7.814-26.097 7.213-24.623 8.027.787 9.376 6.833 10.71 12.808 1.023 4.587 2.037 9.131 6.053 11.226 9.452 4.93 14.066-7.802 22.105-7.387 12.296.634-2.62 9.665-2.444 13.792.167 3.942 9.257 3.908 8.455 8.474-.828 4.708-10.782 2.908-9.697 9.535.715 4.372 14.171 14.002 8.334 19.725-1.896 1.86-5.881 2.283-8.374 2.606-14.923 1.933-6.086-16.966-16.149-19.882-8.621-2.498-27.297 17.786-32.597 11.672-2.182-2.517-2.382-11.023 11.467-16.99 2.189-.943 4.627-1.812 5.596-4.282.674-1.717 2.241-4.365-3.484-9.605Z" fill="#f1f1f1" stroke="#f1f1f1" stroke-width="2" vectornator:layerName="Curve 1"/></g><path d="M609.043 60.218c0-11.2 6.994-20.278 15.623-20.278 8.628 0 15.623 9.079 15.623 20.278 0 .938-31.246 1.567-31.246 0Z" fill="#0d262c" vectornator:layerName="Oval 2"/><path d="M616.297 32.72c0-4.883 3.747-8.842 8.369-8.842s8.368 3.959 8.368 8.843c0 4.883-3.746 8.842-8.368 8.842s-8.369-3.959-8.369-8.842Z" fill="#94481a" vectornator:layerName="Oval 1"/></g></g></svg>