<?xml version="1.0" encoding="UTF-8" standalone="no"?>
<!DOCTYPE svg PUBLIC "-//W3C//DTD SVG 1.1//EN" "http://www.w3.org/Graphics/SVG/1.1/DTD/svg11.dtd">
<!-- Created with Vectornator (http://vectornator.io/) -->
<svg height="100%" stroke-miterlimit="10" style="fill-rule:nonzero;clip-rule:evenodd;stroke-linecap:round;stroke-linejoin:round;" version="1.1" viewBox="0 0 180 180" width="100%" xml:space="preserve" xmlns="http://www.w3.org/2000/svg" xmlns:vectornator="http://vectornator.io" xmlns:xlink="http://www.w3.org/1999/xlink">
<defs/>
<g id="Layer-1" vectornator:layerName="Layer 1">
<g opacity="1" vectornator:layerName="Group 17">
<g opacity="1" vectornator:layerName="Group 16">
<g opacity="1" vectornator:layerName="Group 128">
<g opacity="1" vectornator:layerName="Group 91">
<g opacity="1" vectornator:layerName="Group 83">
<path d="M71.7395 94.0924C71.7395 94.0924 76.464 83.8033 81.4498 79.0019C84.2487 76.306 88.2322 74.1016 92.2227 74.3724C105.105 75.245 109.36 93.0219 108.89 104.431C108.775 107.235 107.825 109.824 106.241 112.091C100.266 120.645 89.2813 117.399 80.9027 115.097C79.3991 114.685 76.384 112.374 76.384 112.374M76.4046 112.358C75.7411 111.965 71.2272 107.906 71.0823 104.104C71.0087 102.164 71.5794 96.6094 71.745 94.1114" fill="none" opacity="1" stroke="#2d2424" stroke-linecap="round" stroke-linejoin="round" stroke-width="1" vectornator:layerName="Curve 1"/>
<path d="M76.4901 115.586C75.7593 116.181 76.7728 123.098 77.0198 124.349C77.449 126.523 77.4616 128.961 78.8568 130.816C82.1244 135.16 91.5758 135.547 96.0303 133.322C99.9243 131.377 103.235 117.827 101.559 117.096" fill="none" opacity="1" stroke="#2d2424" stroke-linecap="round" stroke-linejoin="round" stroke-width="1" vectornator:layerName="Curve 2"/>
<path d="M87.3414 105.324C88.2242 105.482 89.0722 104.923 89.1744 104.006" fill="none" opacity="1" stroke="#2d2424" stroke-linecap="round" stroke-linejoin="round" stroke-width="1" vectornator:layerName="Curve 10"/>
<path d="M85.0942 134.244C85.1884 136.642 86.5673 145.454 86.2044 147.897C86.1743 148.1 85.7649 148.27 85.7142 148.154" fill="none" opacity="1" stroke="#2d2424" stroke-linecap="round" stroke-linejoin="round" stroke-width="1" vectornator:layerName="Curve 23"/>
<path d="M92.1507 134.794C92.188 135.57 93.9689 147.535 93.9689 147.535C93.9689 147.535 94.1314 147.916 94.2008 147.897" fill="none" opacity="1" stroke="#2d2424" stroke-linecap="round" stroke-linejoin="round" stroke-width="1" vectornator:layerName="Curve 24"/>
<path d="M77.5282 96.7725C77.2685 96.8351 78.5282 97.4471 78.818 97.4645C79.8219 97.5239 80.1418 96.7694 80.7198 96.1629" fill="none" opacity="1" stroke="#2d2424" stroke-linecap="round" stroke-linejoin="round" stroke-width="1" vectornator:layerName="Curve 83"/>
<path d="M88.9147 96.5801C89.3343 97.6657 91.229 97.2729 91.7864 96.4843" fill="none" opacity="1" stroke="#2d2424" stroke-linecap="round" stroke-linejoin="round" stroke-width="1" vectornator:layerName="Curve 84"/>
<path d="M75.9311 117.827C74.2478 118.65 74.5915 119.648 75.4474 120.856C75.635 121.12 76.2526 122.099 76.6778 122.271" fill="none" opacity="1" stroke="#2d2424" stroke-linecap="round" stroke-linejoin="round" stroke-width="1" vectornator:layerName="Curve 85"/>
<path d="M98.4904 120.839C99.264 120.977 100.573 121.222 101.096 121.639C103.073 123.215 101.789 125.759 100.029 127.567" fill="none" opacity="1" stroke="#2d2424" stroke-linecap="round" stroke-linejoin="round" stroke-width="1" vectornator:layerName="Curve 86"/>
<path d="M77.5282 96.7725C77.2685 96.8351 78.5282 97.4471 78.818 97.4645C79.8219 97.5239 80.1418 96.7694 80.7198 96.1629" fill="none" opacity="1" stroke="#2d2424" stroke-linecap="round" stroke-linejoin="round" stroke-width="1" vectornator:layerName="Curve 87"/>
<path d="M88.9147 96.5801C89.3343 97.6657 91.229 97.2729 91.7864 96.4843" fill="none" opacity="1" stroke="#2d2424" stroke-linecap="round" stroke-linejoin="round" stroke-width="1" vectornator:layerName="Curve 88"/>
<path d="M75.9311 117.827C74.2478 118.65 74.5915 119.648 75.4474 120.856C75.635 121.12 76.2526 122.099 76.6778 122.271" fill="none" opacity="1" stroke="#2d2424" stroke-linecap="round" stroke-linejoin="round" stroke-width="1" vectornator:layerName="Curve 89"/>
<path d="M98.4904 120.839C99.264 120.977 100.507 121.322 101.096 121.639C104.234 123.325 100.051 127.413 99.9151 127.567" fill="none" opacity="1" stroke="#2d2424" stroke-linecap="round" stroke-linejoin="round" stroke-width="1" vectornator:layerName="Curve 90"/>
</g>
</g>
</g>
</g>
</g>
</g>
</svg>
