<?xml version="1.0" encoding="UTF-8" standalone="no"?>
<!DOCTYPE svg PUBLIC "-//W3C//DTD SVG 1.1//EN" "http://www.w3.org/Graphics/SVG/1.1/DTD/svg11.dtd">
<!-- Created with Vectornator (http://vectornator.io/) -->
<svg height="100%" stroke-miterlimit="10" style="fill-rule:nonzero;clip-rule:evenodd;stroke-linecap:round;stroke-linejoin:round;" version="1.1" viewBox="0 0 180 180" width="100%" xml:space="preserve" xmlns="http://www.w3.org/2000/svg" xmlns:vectornator="http://vectornator.io" xmlns:xlink="http://www.w3.org/1999/xlink">
<defs/>
<path d="M0 0L180 0L180 180L0 180L0 0Z" fill="#ffffff" fill-rule="nonzero" opacity="1" stroke="none"/>
<g id="Layer-1" vectornator:layerName="Layer 1">
<g opacity="1" vectornator:layerName="Group 91">
<g opacity="1" vectornator:layerName="Group 89">
<path d="M43.0291 133.63C41.9894 134.032 43.4038 132.086 44.7122 132.005C45.607 131.949 47.1271 131.877 47.955 132.11C48.417 132.24 49.0802 133.001 49.0802 132.71C49.0802 130.215 51.9451 131.812 53.4943 131.485C53.8266 131.415 55.0073 130.17 55.341 129.958C57.1181 128.829 59.6084 128.689 62.1749 128.895C64.3373 129.068 66.7989 130.721 67.6274 131.824C67.7942 132.047 67.6255 132.696 67.8522 132.833C68.0808 132.971 69.748 132.116 69.9688 132.004C70.678 131.643 71.9822 131.752 72.8487 131.775C75.939 131.856 75.2887 133.082 76.0675 134.095C76.0846 134.118 76.8937 134.342 77.0316 134.446C77.934 135.129 78.4316 136.136 78.1328 136.984C77.4877 138.816 70.7587 139.519 68.1575 139.161C66.9887 139 66.2023 138.137 65.8988 137.55C65.7929 137.345 65.6544 137.068 65.63 136.856C65.627 136.83 65.5607 136.522 65.5265 136.544C63.2748 137.997 61.5093 138.99 57.947 138.99C56.7895 138.99 56.1628 138.9 55.3965 138.383C55.0351 138.14 54.5808 137.232 54.5808 137.549C54.5808 138.523 50.1543 139.695 48.5542 139.393C47.8199 139.254 47.788 138.625 47.2993 138.468C47.2915 138.465 46.3395 139.04 45.4327 139.223C43.7943 139.553 41.762 139.904 40.1151 139.42C38.4241 138.923 36.3435 135.604 39.7418 135.604C40.1022 135.604 39.2083 135.285 39.1865 135.082C39.1343 134.595 38.9025 133.952 39.1112 133.467C39.117 133.453 44.3222 133.129 43.0291 133.63Z" fill="#dff8f8" fill-rule="nonzero" opacity="1" stroke="none" vectornator:layerName="Curve 1"/>
<path d="M99.4958 133.63C98.4561 134.032 99.8705 132.086 101.179 132.005C102.074 131.949 103.594 131.877 104.422 132.11C104.884 132.24 105.547 133.001 105.547 132.71C105.547 130.215 108.412 131.812 109.961 131.485C110.293 131.415 111.474 130.17 111.808 129.958C113.585 128.829 116.075 128.689 118.642 128.895C120.804 129.068 123.266 130.721 124.094 131.824C124.261 132.047 124.092 132.696 124.319 132.833C124.547 132.971 126.215 132.116 126.435 132.004C127.145 131.643 128.449 131.752 129.315 131.775C132.406 131.856 131.755 133.082 132.534 134.095C132.551 134.118 133.36 134.342 133.498 134.446C134.401 135.129 134.898 136.136 134.599 136.984C133.954 138.816 127.225 139.519 124.624 139.161C123.455 139 122.669 138.137 122.365 137.55C122.26 137.345 122.121 137.068 122.097 136.856C122.094 136.83 122.027 136.522 121.993 136.544C119.741 137.997 117.976 138.99 114.414 138.99C113.256 138.99 112.63 138.9 111.863 138.383C111.502 138.14 111.047 137.232 111.047 137.549C111.047 138.523 106.621 139.695 105.021 139.393C104.287 139.254 104.255 138.625 103.766 138.468C103.758 138.465 102.806 139.04 101.899 139.223C100.261 139.553 98.2287 139.904 96.5818 139.42C94.8908 138.923 92.8101 135.604 96.2085 135.604C96.5689 135.604 95.675 135.285 95.6532 135.082C95.601 134.595 95.3692 133.952 95.5779 133.467C95.5837 133.453 100.789 133.129 99.4958 133.63Z" fill="#dff8f8" fill-rule="nonzero" opacity="1" stroke="none" vectornator:layerName="Curve 2"/>
<g opacity="1" vectornator:layerName="Group 88">
<path d="M74.6772 106.36C75.5016 107.118 75.3103 107.835 76.4535 108.235C77.7694 108.696 82.5161 108.308 81.6339 106.145" fill="none" opacity="1" stroke="#2d2424" stroke-linecap="round" stroke-linejoin="round" stroke-width="1" vectornator:layerName="Curve 3"/>
<path d="M71.1815 106.051C70.1415 106.901 69.8861 109.722 69.8275 110.988C69.7196 113.315 70.7161 117.85 70.7161 117.85C70.7161 117.85 71.9045 122.577 72.0418 125C72.1264 126.494 71.3361 129.729 72.456 130.827C73.227 131.583 75.3453 130.557 76.3908 130.671C77.8978 130.835 77.7634 132.374 79.1149 132.608C80.7485 132.89 81.1382 131.539 82.301 130.874C83.8131 130.009 84.6537 132.395 85.7578 129.327C86.2659 127.916 85.5789 126.603 85.503 125.188C85.3904 123.09 85.381 121.024 85.7738 118.97C86.6854 114.203 88.2682 109.547 84.1828 105.918" fill="#e2e2e2" fill-rule="nonzero" opacity="1" stroke="#2d2424" stroke-linecap="round" stroke-linejoin="round" stroke-width="1" vectornator:layerName="Curve 5"/>
<path d="M71.2183 105.906C67.4053 106.654 67.1672 112.232 68.6316 115.104C68.9283 115.686 69.8193 117.416 70.6191 117.668" fill="#e2e2e2" fill-rule="nonzero" opacity="1" stroke="#2d2424" stroke-linecap="round" stroke-linejoin="round" stroke-width="1" vectornator:layerName="Curve 6"/>
<path d="M84.2565 105.851C87.4745 105.411 88.7716 110.522 88.2756 112.774C88.0047 114.005 87.4581 117.775 86.1662 117.818" fill="#e2e2e2" fill-rule="nonzero" opacity="1" stroke="#2d2424" stroke-linecap="round" stroke-linejoin="round" stroke-width="1" vectornator:layerName="Curve 7"/>
<g opacity="1" vectornator:layerName="Group 86">
<path d="M93.3656 92.1769C93.3656 92.1769 91.2227 84.1457 88.0771 80.0209C86.3113 77.7054 83.5598 75.582 80.4407 75.2357C70.3731 74.1179 64.4935 86.312 63.1896 94.5718C62.8692 96.6016 63.2242 98.5902 64.1146 100.433C67.4758 107.387 76.4259 106.543 83.2268 106.025C84.4472 105.932 87.1115 104.68 87.1115 104.68M87.0979 104.666C87.6673 104.474 91.7434 102.169 92.4101 99.4574C92.7504 98.0737 93.3586 92.1898 93.3586 92.1898" fill="none" opacity="1" stroke="#2d2424" stroke-linecap="round" stroke-linejoin="round" stroke-width="1" vectornator:layerName="Curve 1"/>
</g>
<path d="M73.4659 92.1087C74.052 92.2145 74.5562 92.1443 75.1362 92.0945" fill="none" opacity="1" stroke="#2d2424" stroke-linecap="round" stroke-linejoin="round" stroke-width="1" vectornator:layerName="Curve 8"/>
<path d="M81.9768 91.7659C82.2969 91.7926 83.2835 91.9331 83.4953 91.6356" fill="none" opacity="1" stroke="#2d2424" stroke-linecap="round" stroke-linejoin="round" stroke-width="1" vectornator:layerName="Curve 9"/>
<path d="M78.8061 97.227C78.8128 97.2637 78.4661 96.7844 78.2742 96.9054C78.0996 97.0154 78.6171 97.6607 78.6583 97.8326C78.6855 97.9459 78.6359 98.6369 78.6701 98.6439C79.8195 98.8812 79.4244 96.8437 78.9243 96.7663C78.658 96.7251 79.0004 99.1312 79.1193 98.0238C79.1378 97.8515 79.0603 97.7607 78.9834 97.6182C78.8643 97.3976 78.793 97.1561 78.8061 97.227Z" fill="none" opacity="1" stroke="#2d2424" stroke-linecap="round" stroke-linejoin="round" stroke-width="1" vectornator:layerName="Curve 10"/>
<g opacity="1" vectornator:layerName="Group 87">
<path d="M68.8916 72.4709C68.8916 71.7769 73.3401 71.2144 78.8276 71.2144C84.3152 71.2144 88.7637 71.7769 88.7637 72.4709C88.7637 73.1649 84.3152 73.7274 78.8276 73.7274C73.3401 73.7274 68.8916 73.1649 68.8916 72.4709Z" fill="#e6e6e6" fill-rule="nonzero" opacity="1" stroke="#2d2424" stroke-linecap="round" stroke-linejoin="round" stroke-width="0.6" vectornator:layerName="Oval 2"/>
<path d="M70.9676 72.4709C70.9676 72.2315 74.4867 72.0375 78.8276 72.0375C83.1686 72.0375 86.6876 72.2315 86.6876 72.4709C86.6876 72.7103 83.1686 72.9043 78.8276 72.9043C74.4867 72.9043 70.9676 72.7103 70.9676 72.4709Z" fill="#ffffff" fill-rule="nonzero" opacity="1" stroke="#2d2424" stroke-linecap="round" stroke-linejoin="round" stroke-width="0.6" vectornator:layerName="Oval 1"/>
</g>
</g>
<g opacity="1" vectornator:layerName="Group 89">
<path d="M74.6772 106.36C75.5016 107.118 75.3103 107.835 76.4535 108.235C77.7694 108.696 82.5161 108.308 81.6339 106.145" fill="none" opacity="1" stroke="#2d2424" stroke-linecap="round" stroke-linejoin="round" stroke-width="1" vectornator:layerName="Curve 3"/>
<path d="M71.1815 106.051C70.1415 106.901 69.8861 109.722 69.8275 110.988C69.7196 113.315 70.7161 117.85 70.7161 117.85C70.7161 117.85 71.9045 122.577 72.0418 125C72.1264 126.494 71.3361 129.729 72.456 130.827C73.227 131.583 75.3453 130.557 76.3908 130.671C77.8978 130.835 77.7634 132.374 79.1149 132.608C80.7485 132.89 81.1382 131.539 82.301 130.874C83.8131 130.009 84.6537 132.395 85.7578 129.327C86.2659 127.916 85.5789 126.603 85.503 125.188C85.3904 123.09 85.381 121.024 85.7738 118.97C86.6854 114.203 88.2682 109.547 84.1828 105.918" fill="#e2e2e2" fill-rule="nonzero" opacity="1" stroke="#2d2424" stroke-linecap="round" stroke-linejoin="round" stroke-width="1" vectornator:layerName="Curve 5"/>
<path d="M71.2183 105.906C67.4053 106.654 67.1672 112.232 68.6316 115.104C68.9283 115.686 69.8193 117.416 70.6191 117.668" fill="#e2e2e2" fill-rule="nonzero" opacity="1" stroke="#2d2424" stroke-linecap="round" stroke-linejoin="round" stroke-width="1" vectornator:layerName="Curve 6"/>
<path d="M84.2565 105.851C87.4745 105.411 88.7716 110.522 88.2756 112.774C88.0047 114.005 87.4581 117.775 86.1662 117.818" fill="#e2e2e2" fill-rule="nonzero" opacity="1" stroke="#2d2424" stroke-linecap="round" stroke-linejoin="round" stroke-width="1" vectornator:layerName="Curve 7"/>
<g opacity="1" vectornator:layerName="Group 86">
<path d="M93.3656 92.1769C93.3656 92.1769 91.2227 84.1457 88.0771 80.0209C86.3113 77.7054 83.5598 75.582 80.4407 75.2357C70.3731 74.1179 64.4935 86.312 63.1896 94.5718C62.8692 96.6016 63.2242 98.5902 64.1146 100.433C67.4758 107.387 76.4259 106.543 83.2268 106.025C84.4472 105.932 87.1115 104.68 87.1115 104.68M87.0979 104.666C87.6673 104.474 91.7434 102.169 92.4101 99.4574C92.7504 98.0737 93.3586 92.1898 93.3586 92.1898" fill="none" opacity="1" stroke="#2d2424" stroke-linecap="round" stroke-linejoin="round" stroke-width="1" vectornator:layerName="Curve 1"/>
</g>
<path d="M73.4659 92.1087C74.052 92.2145 74.5562 92.1443 75.1362 92.0945" fill="none" opacity="1" stroke="#2d2424" stroke-linecap="round" stroke-linejoin="round" stroke-width="1" vectornator:layerName="Curve 8"/>
<path d="M81.9768 91.7659C82.2969 91.7926 83.2835 91.9331 83.4953 91.6356" fill="none" opacity="1" stroke="#2d2424" stroke-linecap="round" stroke-linejoin="round" stroke-width="1" vectornator:layerName="Curve 9"/>
<path d="M78.8061 97.227C78.8128 97.2637 78.4661 96.7844 78.2742 96.9054C78.0996 97.0154 78.6171 97.6607 78.6583 97.8326C78.6855 97.9459 78.6359 98.6369 78.6701 98.6439C79.8195 98.8812 79.4244 96.8437 78.9243 96.7663C78.658 96.7251 79.0004 99.1312 79.1193 98.0238C79.1378 97.8515 79.0603 97.7607 78.9834 97.6182C78.8643 97.3976 78.793 97.1561 78.8061 97.227Z" fill="none" opacity="1" stroke="#2d2424" stroke-linecap="round" stroke-linejoin="round" stroke-width="1" vectornator:layerName="Curve 10"/>
<g opacity="1" vectornator:layerName="Group 87">
<path d="M68.8916 72.4709C68.8916 71.7769 73.3401 71.2144 78.8276 71.2144C84.3152 71.2144 88.7637 71.7769 88.7637 72.4709C88.7637 73.1649 84.3152 73.7274 78.8276 73.7274C73.3401 73.7274 68.8916 73.1649 68.8916 72.4709Z" fill="#e6e6e6" fill-rule="nonzero" opacity="1" stroke="#2d2424" stroke-linecap="round" stroke-linejoin="round" stroke-width="0.6" vectornator:layerName="Oval 2"/>
<path d="M70.9676 72.4709C70.9676 72.2315 74.4867 72.0375 78.8276 72.0375C83.1686 72.0375 86.6876 72.2315 86.6876 72.4709C86.6876 72.7103 83.1686 72.9043 78.8276 72.9043C74.4867 72.9043 70.9676 72.7103 70.9676 72.4709Z" fill="#ffffff" fill-rule="nonzero" opacity="1" stroke="#2d2424" stroke-linecap="round" stroke-linejoin="round" stroke-width="0.6" vectornator:layerName="Oval 1"/>
</g>
</g>
</g>
<path d="M96.652 81.7737C98.9504 81.7737 112.496 73.378 111.83 62.1211" fill="none" opacity="1" stroke="#2d2424" stroke-linecap="round" stroke-linejoin="round" stroke-width="0.6" vectornator:layerName="Curve 1"/>
<g opacity="1" vectornator:layerName="Group 90">
<path d="M92.0675 51.062C92.1646 51.0576 92.2408 51.0797 92.296 51.1282C92.3511 51.1768 92.3832 51.232 92.392 51.2938C92.4008 51.3556 92.3843 51.4163 92.3423 51.4759C92.3004 51.5355 92.2308 51.5764 92.1337 51.5985C91.9041 51.6073 91.6756 51.6106 91.4482 51.6084C91.2208 51.6062 90.9924 51.6051 90.7628 51.6051C90.6656 51.5918 90.5939 51.5576 90.5475 51.5024C90.5012 51.4472 90.4791 51.3876 90.4813 51.3236C90.4835 51.2596 90.51 51.2011 90.5608 51.1481C90.6115 51.0951 90.6855 51.0664 90.7826 51.062C90.8489 51.062 90.914 51.062 90.978 51.062C91.042 51.062 91.1071 51.0642 91.1734 51.0686L91.1734 48.1744L90.7561 48.1744C90.659 48.1612 90.5873 48.127 90.5409 48.0718C90.4945 48.0166 90.4725 47.957 90.4747 47.893C90.4769 47.8289 90.5034 47.7704 90.5541 47.7175C90.6049 47.6645 90.6789 47.6358 90.776 47.6314L92.1403 47.6314C92.2242 47.6579 92.286 47.6976 92.3258 47.7506C92.3655 47.8036 92.3843 47.8576 92.3821 47.9128C92.3798 47.968 92.3567 48.021 92.3125 48.0718C92.2684 48.1226 92.2043 48.1568 92.1204 48.1744L91.7165 48.1744L91.7165 51.0752C91.7739 51.0752 91.8312 51.0741 91.8886 51.0719C91.946 51.0697 92.0057 51.0664 92.0675 51.062Z" fill="#1b1b1b" fill-rule="nonzero" opacity="1" stroke="none"/>
<path d="M97.1472 50.9097C97.2223 50.8479 97.2962 50.8192 97.3691 50.8236C97.4419 50.828 97.5004 50.8523 97.5446 50.8964C97.5887 50.9406 97.613 50.9991 97.6174 51.0719C97.6218 51.1448 97.5931 51.2187 97.5313 51.2938C97.3856 51.4528 97.2145 51.5653 97.0181 51.6316C96.8216 51.6978 96.6273 51.7166 96.4352 51.6879C96.2432 51.6592 96.0655 51.583 95.9021 51.4594C95.7387 51.3357 95.6173 51.168 95.5378 50.956C95.4893 50.8368 95.454 50.711 95.4319 50.5785C95.4098 50.4461 95.4032 50.3158 95.412 50.1878C95.4253 49.9759 95.4749 49.7628 95.561 49.5487C95.6471 49.3345 95.7641 49.148 95.912 48.989C96.0599 48.8301 96.2344 48.7142 96.4352 48.6413C96.6361 48.5685 96.8558 48.5696 97.0942 48.6447C97.2134 48.6844 97.3216 48.733 97.4187 48.7904C97.5159 48.8478 97.6086 48.9206 97.6969 49.0089C97.7455 49.0796 97.7698 49.148 97.7698 49.2142C97.7698 49.2805 97.751 49.3345 97.7135 49.3765C97.6759 49.4184 97.6252 49.446 97.5611 49.4593C97.4971 49.4725 97.4254 49.4593 97.3459 49.4195C97.2002 49.2738 97.0589 49.1866 96.922 49.1579C96.7852 49.1292 96.6582 49.1414 96.5412 49.1944C96.4242 49.2473 96.3204 49.3323 96.2299 49.4493C96.1394 49.5663 96.0699 49.6988 96.0213 49.8467C95.9727 49.9946 95.9485 50.1492 95.9485 50.3103C95.9485 50.4715 95.9794 50.6205 96.0412 50.7574C96.0942 50.881 96.1659 50.9759 96.2564 51.0421C96.3469 51.1084 96.443 51.147 96.5445 51.158C96.6461 51.1691 96.7509 51.1536 96.8591 51.1117C96.9673 51.0697 97.0633 51.0024 97.1472 50.9097Z" fill="#1b1b1b" fill-rule="nonzero" opacity="1" stroke="none"/>
<path d="M100.77 51.3402C100.77 51.3446 100.768 51.3468 100.763 51.3468C100.79 51.4086 100.796 51.466 100.783 51.519C100.77 51.572 100.745 51.615 100.707 51.6481C100.669 51.6812 100.621 51.7022 100.561 51.711C100.502 51.7199 100.437 51.7066 100.366 51.6713C100.326 51.6316 100.289 51.5885 100.253 51.5422C100.218 51.4958 100.187 51.4483 100.161 51.3998C100.072 51.4748 99.9774 51.5444 99.8758 51.6084C99.7743 51.6724 99.6727 51.7066 99.5712 51.711C99.3946 51.7199 99.2202 51.7221 99.048 51.7177C98.8758 51.7133 98.7124 51.6559 98.5579 51.5455C98.4298 51.4528 98.3316 51.3424 98.2632 51.2143C98.1947 51.0863 98.1506 50.9505 98.1307 50.807C98.1108 50.6635 98.1119 50.5167 98.134 50.3666C98.1561 50.2165 98.1936 50.073 98.2466 49.9361C98.2687 49.8743 98.2974 49.8147 98.3327 49.7573C98.368 49.6999 98.4033 49.6403 98.4387 49.5785C98.4872 49.4902 98.5424 49.4074 98.6042 49.3301C98.666 49.2529 98.7367 49.1855 98.8162 49.1281C98.8736 49.0884 98.9299 49.0487 98.985 49.0089C99.0402 48.9692 99.0965 48.9316 99.1539 48.8963C99.1937 48.8698 99.2544 48.8422 99.3361 48.8135C99.4177 48.7848 99.506 48.7606 99.601 48.7407C99.6959 48.7208 99.7908 48.7109 99.8858 48.7109C99.9807 48.7109 100.061 48.7241 100.127 48.7506C100.189 48.7418 100.25 48.7572 100.31 48.797C100.369 48.8367 100.414 48.9007 100.445 48.989C100.445 49.2893 100.443 49.5917 100.439 49.8964C100.434 50.201 100.454 50.5035 100.498 50.8037C100.503 50.8434 100.519 50.8909 100.548 50.9461C100.577 51.0013 100.608 51.0554 100.641 51.1084C100.674 51.1613 100.704 51.2099 100.73 51.2541C100.757 51.2982 100.77 51.3269 100.77 51.3402ZM99.9288 50.8832C99.9376 50.8788 99.9443 50.8744 99.9487 50.8699C99.9531 50.8655 99.9597 50.8611 99.9685 50.8567C99.9111 50.5918 99.8835 50.3169 99.8858 50.0321C99.888 49.7474 99.8913 49.4858 99.8957 49.2473C99.856 49.2473 99.8118 49.2518 99.7632 49.2606C99.7147 49.2694 99.6672 49.2816 99.6208 49.297C99.5745 49.3125 99.5325 49.3268 99.495 49.3401C99.4575 49.3533 99.4299 49.3643 99.4122 49.3732C99.2798 49.435 99.1672 49.5156 99.0745 49.6149C98.9817 49.7142 98.9056 49.8246 98.846 49.946C98.7864 50.0675 98.7411 50.1955 98.7102 50.3302C98.6793 50.4648 98.6638 50.6006 98.6638 50.7375C98.6727 50.7728 98.6837 50.8081 98.697 50.8434C98.7102 50.8788 98.7212 50.9141 98.7301 50.9494C98.7521 50.9715 98.7753 50.9958 98.7996 51.0223C98.8239 51.0488 98.8493 51.073 98.8758 51.0951C98.9155 51.1128 98.9552 51.1282 98.995 51.1415C99.0347 51.1547 99.0745 51.168 99.1142 51.1812C99.1893 51.1812 99.2621 51.1834 99.3327 51.1878C99.4034 51.1923 99.474 51.1834 99.5447 51.1613C99.6109 51.1172 99.676 51.073 99.7401 51.0289C99.8041 50.9847 99.867 50.9362 99.9288 50.8832Z" fill="#1b1b1b" fill-rule="nonzero" opacity="1" stroke="none"/>
<path d="M103.737 51.4263C103.733 51.5278 103.703 51.604 103.648 51.6547C103.592 51.7055 103.532 51.7309 103.465 51.7309C103.404 51.7309 103.346 51.7077 103.293 51.6614C103.24 51.615 103.207 51.5433 103.194 51.4461C103.194 51.243 103.193 51.041 103.191 50.8401C103.188 50.6392 103.187 50.4372 103.187 50.2341C103.187 50.0884 103.188 49.9427 103.191 49.797C103.193 49.6513 103.183 49.5056 103.161 49.3599C103.125 49.2937 103.087 49.2529 103.045 49.2374C103.003 49.2219 102.953 49.2142 102.896 49.2142C102.746 49.2142 102.598 49.2506 102.452 49.3235C102.306 49.3964 102.192 49.4968 102.108 49.6248C102.059 49.6999 102.021 49.7628 101.992 49.8136C101.963 49.8644 101.944 49.9383 101.936 50.0355C101.936 50.2606 101.936 50.4858 101.936 50.711C101.936 50.9362 101.938 51.1613 101.942 51.3865C101.938 51.4881 101.908 51.5642 101.853 51.615C101.798 51.6658 101.737 51.6912 101.671 51.6912C101.609 51.6912 101.551 51.668 101.498 51.6216C101.445 51.5753 101.412 51.5035 101.399 51.4064C101.399 51.1945 101.399 50.9892 101.399 50.7905C101.399 50.5918 101.398 50.3953 101.396 50.201C101.394 50.0068 101.392 49.8092 101.392 49.6083C101.392 49.4074 101.392 49.201 101.392 48.989C101.415 48.9007 101.45 48.8345 101.498 48.7904C101.547 48.7462 101.602 48.7241 101.664 48.7241C101.721 48.7241 101.775 48.744 101.826 48.7837C101.877 48.8235 101.913 48.8853 101.936 48.9692L101.936 49.0222C102.064 48.9118 102.208 48.8246 102.369 48.7606C102.53 48.6965 102.693 48.6645 102.856 48.6645C103.019 48.6645 103.173 48.7021 103.316 48.7771C103.46 48.8522 103.576 48.9736 103.664 49.1414C103.695 49.1988 103.716 49.2705 103.727 49.3566C103.738 49.4427 103.745 49.5332 103.747 49.6282C103.749 49.7231 103.748 49.8202 103.744 49.9196C103.739 50.0189 103.737 50.1127 103.737 50.201L103.737 50.9825L103.737 51.4263Z" fill="#1b1b1b" fill-rule="nonzero" opacity="1" stroke="none"/>
<path d="M107.313 51.4196C107.309 51.5168 107.28 51.5907 107.227 51.6415C107.174 51.6923 107.116 51.7188 107.052 51.721C106.988 51.7232 106.928 51.7011 106.873 51.6547C106.818 51.6084 106.783 51.5366 106.77 51.4395L106.77 47.7572C106.788 47.6733 106.822 47.6093 106.873 47.5651C106.924 47.521 106.977 47.4978 107.032 47.4956C107.087 47.4934 107.141 47.5121 107.194 47.5519C107.247 47.5916 107.287 47.6534 107.313 47.7373L107.313 49.2937C107.38 49.2275 107.441 49.1745 107.499 49.1347C107.587 49.0729 107.67 49.0233 107.747 48.9857C107.824 48.9482 107.914 48.9184 108.015 48.8963C108.095 48.8742 108.175 48.8698 108.257 48.8831C108.339 48.8963 108.419 48.914 108.499 48.9361C108.631 48.9758 108.745 49.0398 108.84 49.1281C108.935 49.2164 109.014 49.3191 109.078 49.4361C109.142 49.5531 109.19 49.6778 109.221 49.8103C109.252 49.9427 109.269 50.0708 109.274 50.1944C109.278 50.4063 109.279 50.615 109.277 50.8203C109.275 51.0256 109.276 51.2342 109.28 51.4461C109.276 51.5433 109.247 51.6172 109.194 51.668C109.141 51.7188 109.083 51.7453 109.019 51.7475C108.955 51.7497 108.895 51.7276 108.84 51.6812C108.785 51.6349 108.75 51.5631 108.737 51.466C108.737 51.2541 108.737 51.0454 108.737 50.8401C108.737 50.6348 108.735 50.4262 108.731 50.2143C108.726 50.0553 108.696 49.9118 108.641 49.7838C108.586 49.6557 108.49 49.5476 108.353 49.4593C108.238 49.4284 108.135 49.4284 108.042 49.4593C107.949 49.4902 107.864 49.5376 107.787 49.6017C107.71 49.6657 107.638 49.7396 107.572 49.8235C107.505 49.9074 107.441 49.9891 107.38 50.0686C107.371 50.0818 107.36 50.094 107.346 50.105C107.333 50.116 107.322 50.126 107.313 50.1348L107.313 51.4196Z" fill="#1b1b1b" fill-rule="nonzero" opacity="1" stroke="none"/>
<path d="M112.208 50.8501C112.3 50.8147 112.38 50.8103 112.446 50.8368C112.512 50.8633 112.56 50.9053 112.588 50.9627C112.617 51.0201 112.622 51.0841 112.602 51.1547C112.582 51.2254 112.53 51.285 112.446 51.3335C112.3 51.4174 112.144 51.4947 111.976 51.5653C111.808 51.636 111.638 51.6846 111.466 51.711C111.294 51.7375 111.124 51.7364 110.956 51.7077C110.788 51.679 110.627 51.6117 110.472 51.5057C110.287 51.3777 110.146 51.2044 110.049 50.9858C109.951 50.7673 109.901 50.5399 109.896 50.3037C109.892 50.0675 109.935 49.8401 110.025 49.6215C110.116 49.403 110.258 49.2275 110.453 49.095C110.656 48.9581 110.876 48.8555 111.115 48.787C111.353 48.7186 111.594 48.7109 111.837 48.7639C111.956 48.7904 112.064 48.8467 112.161 48.9328C112.258 49.0188 112.337 49.1182 112.396 49.2308C112.456 49.3434 112.488 49.4626 112.492 49.5884C112.497 49.7142 112.466 49.8324 112.4 49.9427C112.325 50.0664 112.216 50.1712 112.075 50.2573C111.934 50.3434 111.78 50.4163 111.615 50.4759C111.449 50.5355 111.284 50.5852 111.118 50.6249C110.953 50.6646 110.808 50.7022 110.684 50.7375C110.631 50.7507 110.581 50.7529 110.532 50.7441C110.598 50.8854 110.696 51.0013 110.827 51.0918C110.957 51.1823 111.119 51.221 111.314 51.2077C111.468 51.1989 111.624 51.1558 111.78 51.0786C111.937 51.0013 112.08 50.9251 112.208 50.8501ZM110.916 49.4394C110.753 49.5233 110.631 49.6414 110.552 49.7937C110.472 49.946 110.433 50.1061 110.433 50.2739C110.464 50.2518 110.497 50.2341 110.532 50.2209C110.611 50.1988 110.692 50.1756 110.774 50.1514C110.855 50.1271 110.938 50.1039 111.022 50.0818C111.075 50.0686 111.147 50.0487 111.237 50.0222C111.328 49.9957 111.422 49.9648 111.519 49.9295C111.616 49.8942 111.704 49.8533 111.784 49.807C111.863 49.7606 111.916 49.7087 111.943 49.6513C111.952 49.5056 111.916 49.4063 111.837 49.3533C111.757 49.3003 111.662 49.2738 111.552 49.2738C111.442 49.2738 111.327 49.2926 111.208 49.3301C111.088 49.3677 110.991 49.4041 110.916 49.4394Z" fill="#1b1b1b" fill-rule="nonzero" opacity="1" stroke="none"/>
<path d="M115.744 51.3402C115.744 51.3446 115.742 51.3468 115.738 51.3468C115.764 51.4086 115.771 51.466 115.757 51.519C115.744 51.572 115.719 51.615 115.681 51.6481C115.644 51.6812 115.595 51.7022 115.536 51.711C115.476 51.7199 115.411 51.7066 115.34 51.6713C115.3 51.6316 115.263 51.5885 115.228 51.5422C115.192 51.4958 115.161 51.4483 115.135 51.3998C115.047 51.4748 114.952 51.5444 114.85 51.6084C114.749 51.6724 114.647 51.7066 114.545 51.711C114.369 51.7199 114.194 51.7221 114.022 51.7177C113.85 51.7133 113.687 51.6559 113.532 51.5455C113.404 51.4528 113.306 51.3424 113.237 51.2143C113.169 51.0863 113.125 50.9505 113.105 50.807C113.085 50.6635 113.086 50.5167 113.108 50.3666C113.13 50.2165 113.168 50.073 113.221 49.9361C113.243 49.8743 113.272 49.8147 113.307 49.7573C113.342 49.6999 113.378 49.6403 113.413 49.5785C113.462 49.4902 113.517 49.4074 113.579 49.3301C113.64 49.2529 113.711 49.1855 113.79 49.1281C113.848 49.0884 113.904 49.0487 113.959 49.0089C114.015 48.9692 114.071 48.9316 114.128 48.8963C114.168 48.8698 114.229 48.8422 114.31 48.8135C114.392 48.7848 114.48 48.7606 114.575 48.7407C114.67 48.7208 114.765 48.7109 114.86 48.7109C114.955 48.7109 115.036 48.7241 115.102 48.7506C115.164 48.7418 115.224 48.7572 115.284 48.797C115.344 48.8367 115.389 48.9007 115.42 48.989C115.42 49.2893 115.417 49.5917 115.413 49.8964C115.409 50.201 115.429 50.5035 115.473 50.8037C115.477 50.8434 115.494 50.8909 115.522 50.9461C115.551 51.0013 115.582 51.0554 115.615 51.1084C115.648 51.1613 115.678 51.2099 115.704 51.2541C115.731 51.2982 115.744 51.3269 115.744 51.3402ZM114.903 50.8832C114.912 50.8788 114.919 50.8744 114.923 50.8699C114.927 50.8655 114.934 50.8611 114.943 50.8567C114.885 50.5918 114.858 50.3169 114.86 50.0321C114.862 49.7474 114.866 49.4858 114.87 49.2473C114.83 49.2473 114.786 49.2518 114.738 49.2606C114.689 49.2694 114.641 49.2816 114.595 49.297C114.549 49.3125 114.507 49.3268 114.469 49.3401C114.432 49.3533 114.404 49.3643 114.387 49.3732C114.254 49.435 114.141 49.5156 114.049 49.6149C113.956 49.7142 113.88 49.8246 113.82 49.946C113.761 50.0675 113.715 50.1955 113.684 50.3302C113.654 50.4648 113.638 50.6006 113.638 50.7375C113.647 50.7728 113.658 50.8081 113.671 50.8434C113.684 50.8788 113.696 50.9141 113.704 50.9494C113.726 50.9715 113.75 50.9958 113.774 51.0223C113.798 51.0488 113.824 51.073 113.85 51.0951C113.89 51.1128 113.93 51.1282 113.969 51.1415C114.009 51.1547 114.049 51.168 114.088 51.1812C114.164 51.1812 114.236 51.1834 114.307 51.1878C114.378 51.1923 114.448 51.1834 114.519 51.1613C114.585 51.1172 114.65 51.073 114.714 51.0289C114.778 50.9847 114.841 50.9362 114.903 50.8832Z" fill="#1b1b1b" fill-rule="nonzero" opacity="1" stroke="none"/>
<path d="M116.38 49.3202C116.314 49.2849 116.265 49.2429 116.234 49.1944C116.203 49.1458 116.188 49.0972 116.188 49.0487C116.188 48.9824 116.212 48.9239 116.261 48.8731C116.309 48.8224 116.376 48.797 116.459 48.797C116.521 48.797 116.599 48.8191 116.691 48.8632C116.784 48.9074 116.857 48.9559 116.91 49.0089C117.047 48.8941 117.188 48.7992 117.334 48.7241C117.479 48.6491 117.627 48.6115 117.777 48.6115C117.822 48.6115 117.886 48.6226 117.969 48.6447C118.053 48.6667 118.136 48.6998 118.218 48.744C118.3 48.7882 118.371 48.8456 118.433 48.9162C118.495 48.9868 118.526 49.0685 118.526 49.1612C118.526 49.2363 118.502 49.297 118.453 49.3434C118.404 49.3897 118.345 49.4129 118.274 49.4129C118.226 49.4129 118.183 49.3986 118.145 49.3699C118.107 49.3412 118.07 49.3103 118.032 49.2771C117.995 49.244 117.955 49.2142 117.913 49.1877C117.871 49.1612 117.824 49.148 117.771 49.148C117.709 49.148 117.642 49.1668 117.569 49.2043C117.496 49.2418 117.423 49.2871 117.35 49.3401C117.277 49.393 117.208 49.4504 117.142 49.5123C117.075 49.5741 117.018 49.6293 116.969 49.6778L116.969 51.4395C116.965 51.5411 116.935 51.6172 116.88 51.668C116.825 51.7188 116.764 51.7442 116.698 51.7442C116.636 51.7442 116.579 51.721 116.526 51.6746C116.473 51.6283 116.44 51.5565 116.426 51.4594L116.426 49.6513C116.426 49.6425 116.425 49.6326 116.423 49.6215C116.421 49.6105 116.42 49.6006 116.42 49.5917C116.42 49.5829 116.421 49.573 116.423 49.5619C116.425 49.5509 116.426 49.541 116.426 49.5321L116.426 49.3401C116.409 49.3312 116.393 49.3246 116.38 49.3202Z" fill="#1b1b1b" fill-rule="nonzero" opacity="1" stroke="none"/>
<path d="M123.321 48.7904C123.356 48.7285 123.396 48.6844 123.44 48.6579C123.484 48.6314 123.53 48.6182 123.579 48.6182C123.654 48.6182 123.716 48.6469 123.764 48.7043C123.813 48.7617 123.837 48.8411 123.837 48.9427C123.745 49.3003 123.628 49.6469 123.486 49.9825C123.345 50.318 123.191 50.647 123.023 50.9693C122.855 51.2916 122.678 51.6106 122.493 51.9263C122.307 52.242 122.126 52.561 121.95 52.8833C121.915 52.9319 121.875 52.9661 121.831 52.9859C121.786 53.0058 121.745 53.0157 121.705 53.0157C121.639 53.0157 121.581 52.9915 121.533 52.9429C121.484 52.8943 121.46 52.8259 121.46 52.7376C121.46 52.7243 121.46 52.71 121.46 52.6945C121.46 52.6791 121.462 52.6625 121.466 52.6449C121.612 52.3755 121.762 52.1106 121.917 51.8501C122.071 51.5896 122.221 51.3269 122.367 51.062C122.19 50.9207 122.032 50.7761 121.89 50.6282C121.749 50.4803 121.622 50.3236 121.509 50.158C121.397 49.9924 121.299 49.8136 121.215 49.6215C121.131 49.4295 121.058 49.2208 120.996 48.9957C120.996 48.8809 121.019 48.7937 121.066 48.7341C121.112 48.6745 121.175 48.6447 121.254 48.6447C121.312 48.6447 121.366 48.6634 121.417 48.701C121.467 48.7385 121.504 48.7992 121.526 48.8831C121.575 49.0685 121.633 49.2396 121.701 49.3964C121.77 49.5531 121.849 49.6988 121.94 49.8335C122.03 49.9681 122.132 50.0962 122.245 50.2176C122.357 50.339 122.482 50.4571 122.619 50.5719C122.764 50.2849 122.898 49.9957 123.019 49.7043C123.141 49.4129 123.241 49.1083 123.321 48.7904Z" fill="#1b1b1b" fill-rule="nonzero" opacity="1" stroke="none"/>
<path d="M124.109 50.0023C124.157 49.8611 124.217 49.7231 124.288 49.5884C124.358 49.4538 124.442 49.3312 124.539 49.2208C124.637 49.1105 124.748 49.0155 124.874 48.9361C125 48.8566 125.14 48.7992 125.294 48.7639C125.55 48.7065 125.775 48.7263 125.967 48.8235C126.159 48.9206 126.312 49.0597 126.427 49.2407C126.542 49.4217 126.618 49.6282 126.655 49.86C126.693 50.0918 126.683 50.3136 126.626 50.5256C126.559 50.786 126.442 51.0289 126.275 51.2541C126.107 51.4792 125.895 51.6426 125.639 51.7442C125.449 51.8192 125.267 51.8468 125.092 51.8269C124.918 51.8071 124.761 51.7508 124.622 51.6581C124.483 51.5653 124.365 51.4439 124.268 51.2938C124.171 51.1437 124.104 50.9737 124.069 50.7838C124.047 50.6646 124.039 50.5476 124.046 50.4328C124.053 50.318 124.067 50.2032 124.089 50.0884L124.109 50.0023ZM124.625 50.1547C124.608 50.2474 124.596 50.3324 124.589 50.4097C124.582 50.4869 124.586 50.5741 124.599 50.6713C124.612 50.7905 124.65 50.8975 124.712 50.9925C124.773 51.0874 124.848 51.1602 124.937 51.211C125.025 51.2618 125.123 51.2861 125.231 51.2839C125.34 51.2817 125.449 51.2474 125.559 51.1812C125.705 51.0929 125.821 50.9781 125.907 50.8368C125.993 50.6955 126.058 50.5432 126.102 50.3798C126.138 50.2474 126.145 50.1061 126.126 49.956C126.106 49.8059 126.06 49.6734 125.99 49.5586C125.919 49.4438 125.824 49.361 125.705 49.3103C125.586 49.2595 125.444 49.2672 125.281 49.3334C125.105 49.4085 124.965 49.5211 124.864 49.6712C124.762 49.8213 124.683 49.9825 124.625 50.1547Z" fill="#1b1b1b" fill-rule="nonzero" opacity="1" stroke="none"/>
<path d="M129.917 51.168C129.966 51.2298 129.99 51.2982 129.99 51.3733C129.99 51.4483 129.966 51.509 129.917 51.5554C129.869 51.6018 129.809 51.6249 129.738 51.6249C129.641 51.6249 129.557 51.5797 129.487 51.4892C129.416 51.3987 129.356 51.296 129.308 51.1812C129.193 51.3048 129.058 51.4097 128.904 51.4958C128.749 51.5819 128.59 51.6249 128.427 51.6249C128.308 51.6249 128.193 51.604 128.083 51.562C127.972 51.5201 127.87 51.4627 127.775 51.3898C127.68 51.317 127.596 51.232 127.523 51.1349C127.45 51.0377 127.396 50.9362 127.361 50.8302C127.325 50.7154 127.301 50.5885 127.288 50.4494C127.275 50.3103 127.268 50.1657 127.268 50.0156C127.268 49.8346 127.272 49.658 127.281 49.4858C127.29 49.3136 127.294 49.1612 127.294 49.0288C127.317 48.9405 127.352 48.8742 127.4 48.8301C127.449 48.7859 127.504 48.7639 127.566 48.7639C127.623 48.7639 127.678 48.7837 127.728 48.8235C127.779 48.8632 127.815 48.925 127.838 49.0089C127.838 49.2164 127.834 49.4162 127.828 49.6083C127.821 49.8003 127.818 50.0046 127.818 50.2209C127.818 50.4682 127.871 50.6713 127.977 50.8302C128.083 50.9892 128.226 51.0686 128.407 51.0686C128.473 51.0686 128.54 51.0554 128.606 51.0289C128.672 51.0024 128.734 50.9671 128.791 50.9229C128.849 50.8788 128.902 50.828 128.95 50.7706C128.999 50.7132 129.043 50.6558 129.083 50.5984C129.091 50.5896 129.103 50.5818 129.116 50.5752C129.129 50.5686 129.14 50.5609 129.149 50.552C129.122 50.3313 129.109 50.1083 129.109 49.8831C129.109 49.7551 129.11 49.6259 129.112 49.4957C129.115 49.3654 129.126 49.2462 129.146 49.1381C129.165 49.0299 129.199 48.9416 129.245 48.8731C129.291 48.8047 129.356 48.7705 129.44 48.7705C129.507 48.7705 129.566 48.7959 129.619 48.8467C129.672 48.8974 129.699 48.9714 129.699 49.0685C129.699 49.1701 129.691 49.2937 129.675 49.4394C129.66 49.5851 129.652 49.7374 129.652 49.8964C129.652 50.02 129.657 50.1436 129.665 50.2673C129.674 50.3909 129.689 50.509 129.709 50.6216C129.728 50.7342 129.755 50.8368 129.788 50.9295C129.821 51.0223 129.864 51.1017 129.917 51.168Z" fill="#1b1b1b" fill-rule="nonzero" opacity="1" stroke="none"/>
<path d="M130.705 49.3202C130.639 49.2849 130.59 49.2429 130.56 49.1944C130.529 49.1458 130.513 49.0972 130.513 49.0487C130.513 48.9824 130.537 48.9239 130.586 48.8731C130.635 48.8224 130.701 48.797 130.785 48.797C130.847 48.797 130.924 48.8191 131.017 48.8632C131.109 48.9074 131.182 48.9559 131.235 49.0089C131.372 48.8941 131.513 48.7992 131.659 48.7241C131.805 48.6491 131.953 48.6115 132.103 48.6115C132.147 48.6115 132.211 48.6226 132.295 48.6447C132.379 48.6667 132.461 48.6998 132.543 48.744C132.625 48.7882 132.697 48.8456 132.758 48.9162C132.82 48.9868 132.851 49.0685 132.851 49.1612C132.851 49.2363 132.827 49.297 132.778 49.3434C132.73 49.3897 132.67 49.4129 132.599 49.4129C132.551 49.4129 132.508 49.3986 132.47 49.3699C132.433 49.3412 132.395 49.3103 132.358 49.2771C132.32 49.244 132.28 49.2142 132.238 49.1877C132.197 49.1612 132.149 49.148 132.096 49.148C132.034 49.148 131.967 49.1668 131.894 49.2043C131.821 49.2418 131.748 49.2871 131.676 49.3401C131.603 49.393 131.533 49.4504 131.467 49.5123C131.401 49.5741 131.343 49.6293 131.295 49.6778L131.295 51.4395C131.29 51.5411 131.26 51.6172 131.205 51.668C131.15 51.7188 131.089 51.7442 131.023 51.7442C130.961 51.7442 130.904 51.721 130.851 51.6746C130.798 51.6283 130.765 51.5565 130.752 51.4594L130.752 49.6513C130.752 49.6425 130.751 49.6326 130.748 49.6215C130.746 49.6105 130.745 49.6006 130.745 49.5917C130.745 49.5829 130.746 49.573 130.748 49.5619C130.751 49.5509 130.752 49.541 130.752 49.5321L130.752 49.3401C130.734 49.3312 130.719 49.3246 130.705 49.3202Z" fill="#1b1b1b" fill-rule="nonzero" opacity="1" stroke="none"/>
<path d="M91.1005 59.1192C91.0961 59.2207 91.0663 59.2969 91.0111 59.3477C90.9559 59.3985 90.8952 59.4238 90.829 59.4238C90.7672 59.4238 90.7098 59.4007 90.6568 59.3543C90.6038 59.3079 90.5707 59.2362 90.5575 59.1391C90.553 58.724 90.5497 58.3002 90.5475 57.8675C90.5453 57.4348 90.542 57.0109 90.5376 56.5959C90.5597 56.5076 90.595 56.4413 90.6435 56.3972C90.6921 56.353 90.7473 56.331 90.8091 56.331C90.8665 56.331 90.9206 56.3508 90.9714 56.3906C91.0222 56.4303 91.0586 56.4921 91.0807 56.576C91.0851 56.991 91.0884 57.4149 91.0906 57.8476C91.0928 58.2803 91.0961 58.7042 91.1005 59.1192ZM90.4912 55.5164C90.4912 55.4192 90.5221 55.3364 90.5839 55.268C90.6458 55.1996 90.7208 55.1653 90.8091 55.1653C90.8974 55.1653 90.9736 55.1996 91.0376 55.268C91.1016 55.3364 91.1336 55.4192 91.1336 55.5164C91.1336 55.6091 91.1016 55.6896 91.0376 55.7581C90.9736 55.8265 90.8974 55.8607 90.8091 55.8607C90.7208 55.8607 90.6458 55.8265 90.5839 55.7581C90.5221 55.6896 90.4912 55.6091 90.4912 55.5164Z" fill="#1b1b1b" fill-rule="nonzero" opacity="1" stroke="none"/>
<path d="M94.3457 59.1324C94.3413 59.234 94.3115 59.3101 94.2563 59.3609C94.2011 59.4117 94.1404 59.4371 94.0742 59.4371C94.0124 59.4371 93.955 59.4139 93.902 59.3675C93.849 59.3212 93.8159 59.2494 93.8027 59.1523C93.8027 58.9492 93.8016 58.7472 93.7993 58.5463C93.7971 58.3454 93.796 58.1434 93.796 57.9403C93.796 57.7946 93.7971 57.6489 93.7993 57.5032C93.8016 57.3575 93.7916 57.2118 93.7695 57.0661C93.7342 56.9999 93.6956 56.959 93.6536 56.9436C93.6117 56.9281 93.562 56.9204 93.5046 56.9204C93.3545 56.9204 93.2066 56.9568 93.0609 57.0297C92.9152 57.1025 92.8004 57.203 92.7165 57.331C92.6679 57.4061 92.6293 57.469 92.6006 57.5198C92.5719 57.5705 92.5531 57.6445 92.5443 57.7416C92.5443 57.9668 92.5443 58.192 92.5443 58.4172C92.5443 58.6423 92.5465 58.8675 92.5509 59.0927C92.5465 59.1942 92.5167 59.2704 92.4615 59.3212C92.4063 59.372 92.3456 59.3974 92.2794 59.3974C92.2176 59.3974 92.1602 59.3742 92.1072 59.3278C92.0542 59.2814 92.0211 59.2097 92.0079 59.1126C92.0079 58.9006 92.0079 58.6953 92.0079 58.4966C92.0079 58.298 92.0068 58.1015 92.0045 57.9072C92.0023 57.7129 92.0012 57.5154 92.0012 57.3145C92.0012 57.1136 92.0012 56.9072 92.0012 56.6952C92.0233 56.6069 92.0586 56.5407 92.1072 56.4965C92.1558 56.4524 92.211 56.4303 92.2728 56.4303C92.3302 56.4303 92.3843 56.4502 92.435 56.4899C92.4858 56.5296 92.5222 56.5915 92.5443 56.6754L92.5443 56.7283C92.6724 56.618 92.817 56.5308 92.9781 56.4667C93.1393 56.4027 93.3015 56.3707 93.4649 56.3707C93.6283 56.3707 93.7817 56.4082 93.9252 56.4833C94.0687 56.5583 94.1846 56.6798 94.2729 56.8475C94.3038 56.9049 94.3248 56.9767 94.3358 57.0628C94.3468 57.1489 94.3535 57.2394 94.3557 57.3343C94.3579 57.4293 94.3568 57.5264 94.3524 57.6257C94.3479 57.7251 94.3457 57.8189 94.3457 57.9072L94.3457 58.6887L94.3457 59.1324Z" fill="#1b1b1b" fill-rule="nonzero" opacity="1" stroke="none"/>
<path d="M97.4055 59.1324C97.4011 59.234 97.3713 59.3101 97.3161 59.3609C97.2609 59.4117 97.2002 59.4371 97.134 59.4371C97.0721 59.4371 97.0147 59.4139 96.9618 59.3675C96.9088 59.3212 96.8757 59.2494 96.8624 59.1523C96.8624 58.9492 96.8613 58.7472 96.8591 58.5463C96.8569 58.3454 96.8558 58.1434 96.8558 57.9403C96.8558 57.7946 96.8569 57.6489 96.8591 57.5032C96.8613 57.3575 96.8514 57.2118 96.8293 57.0661C96.794 56.9999 96.7553 56.959 96.7134 56.9436C96.6715 56.9281 96.6218 56.9204 96.5644 56.9204C96.4143 56.9204 96.2664 56.9568 96.1207 57.0297C95.975 57.1025 95.8602 57.203 95.7763 57.331C95.7277 57.4061 95.6891 57.469 95.6604 57.5198C95.6317 57.5705 95.6129 57.6445 95.6041 57.7416C95.6041 57.9668 95.6041 58.192 95.6041 58.4172C95.6041 58.6423 95.6063 58.8675 95.6107 59.0927C95.6063 59.1942 95.5765 59.2704 95.5213 59.3212C95.4661 59.372 95.4054 59.3974 95.3392 59.3974C95.2773 59.3974 95.2199 59.3742 95.167 59.3278C95.114 59.2814 95.0809 59.2097 95.0676 59.1126C95.0676 58.9006 95.0676 58.6953 95.0676 58.4966C95.0676 58.298 95.0665 58.1015 95.0643 57.9072C95.0621 57.7129 95.061 57.5154 95.061 57.3145C95.061 57.1136 95.061 56.9072 95.061 56.6952C95.0831 56.6069 95.1184 56.5407 95.167 56.4965C95.2155 56.4524 95.2707 56.4303 95.3325 56.4303C95.3899 56.4303 95.444 56.4502 95.4948 56.4899C95.5456 56.5296 95.582 56.5915 95.6041 56.6754L95.6041 56.7283C95.7321 56.618 95.8767 56.5308 96.0379 56.4667C96.199 56.4027 96.3613 56.3707 96.5247 56.3707C96.688 56.3707 96.8414 56.4082 96.9849 56.4833C97.1284 56.5583 97.2443 56.6798 97.3326 56.8475C97.3635 56.9049 97.3845 56.9767 97.3956 57.0628C97.4066 57.1489 97.4132 57.2394 97.4154 57.3343C97.4176 57.4293 97.4165 57.5264 97.4121 57.6257C97.4077 57.7251 97.4055 57.8189 97.4055 57.9072L97.4055 58.6887L97.4055 59.1324Z" fill="#1b1b1b" fill-rule="nonzero" opacity="1" stroke="none"/>
<path d="M100.419 58.5562C100.512 58.5209 100.591 58.5165 100.657 58.543C100.724 58.5695 100.771 58.6114 100.8 58.6688C100.828 58.7262 100.833 58.7903 100.813 58.8609C100.793 58.9315 100.741 58.9911 100.657 59.0397C100.512 59.1236 100.355 59.2009 100.187 59.2715C100.019 59.3422 99.8493 59.3907 99.6771 59.4172C99.5049 59.4437 99.335 59.4426 99.1672 59.4139C98.9994 59.3852 98.8382 59.3179 98.6837 59.2119C98.4983 59.0839 98.357 58.9106 98.2598 58.692C98.1627 58.4735 98.1119 58.2461 98.1075 58.0099C98.1031 57.7736 98.1462 57.5463 98.2367 57.3277C98.3272 57.1092 98.4696 56.9336 98.6638 56.8012C98.8669 56.6643 99.0877 56.5617 99.3261 56.4932C99.5645 56.4248 99.8052 56.4171 100.048 56.47C100.167 56.4965 100.275 56.5528 100.373 56.6389C100.47 56.725 100.548 56.8244 100.608 56.937C100.667 57.0495 100.699 57.1688 100.704 57.2946C100.708 57.4204 100.677 57.5385 100.611 57.6489C100.536 57.7725 100.428 57.8774 100.286 57.9635C100.145 58.0496 99.9917 58.1224 99.8262 58.1821C99.6606 58.2417 99.495 58.2913 99.3294 58.3311C99.1639 58.3708 99.0193 58.4083 98.8956 58.4437C98.8427 58.4569 98.7919 58.4591 98.7433 58.4503C98.8095 58.5916 98.9078 58.7075 99.038 58.798C99.1683 58.8885 99.3305 58.9271 99.5248 58.9139C99.6793 58.9051 99.835 58.862 99.9917 58.7847C100.148 58.7075 100.291 58.6313 100.419 58.5562ZM99.1274 57.1456C98.9641 57.2295 98.8427 57.3476 98.7632 57.4999C98.6837 57.6522 98.644 57.8123 98.644 57.9801C98.6749 57.958 98.708 57.9403 98.7433 57.9271C98.8228 57.905 98.9034 57.8818 98.985 57.8575C99.0667 57.8333 99.1495 57.8101 99.2334 57.788C99.2864 57.7747 99.3581 57.7549 99.4486 57.7284C99.5392 57.7019 99.633 57.671 99.7301 57.6357C99.8273 57.6003 99.9156 57.5595 99.995 57.5131C100.075 57.4668 100.127 57.4149 100.154 57.3575C100.163 57.2118 100.127 57.1125 100.048 57.0595C99.9685 57.0065 99.8736 56.98 99.7632 56.98C99.6529 56.98 99.5381 56.9988 99.4188 57.0363C99.2996 57.0738 99.2025 57.1103 99.1274 57.1456Z" fill="#1b1b1b" fill-rule="nonzero" opacity="1" stroke="none"/>
<path d="M101.598 57.0264C101.532 56.991 101.483 56.9491 101.452 56.9005C101.421 56.852 101.406 56.8034 101.406 56.7548C101.406 56.6886 101.43 56.6301 101.479 56.5793C101.527 56.5285 101.593 56.5032 101.677 56.5032C101.739 56.5032 101.816 56.5252 101.909 56.5694C102.002 56.6135 102.075 56.6621 102.128 56.7151C102.264 56.6003 102.406 56.5054 102.551 56.4303C102.697 56.3552 102.845 56.3177 102.995 56.3177C103.039 56.3177 103.103 56.3288 103.187 56.3508C103.271 56.3729 103.354 56.406 103.436 56.4502C103.517 56.4943 103.589 56.5517 103.651 56.6224C103.713 56.693 103.744 56.7747 103.744 56.8674C103.744 56.9425 103.719 57.0032 103.671 57.0495C103.622 57.0959 103.563 57.1191 103.492 57.1191C103.443 57.1191 103.4 57.1047 103.363 57.076C103.325 57.0473 103.288 57.0164 103.25 56.9833C103.213 56.9502 103.173 56.9204 103.131 56.8939C103.089 56.8674 103.042 56.8542 102.989 56.8542C102.927 56.8542 102.859 56.8729 102.787 56.9105C102.714 56.948 102.641 56.9933 102.568 57.0462C102.495 57.0992 102.426 57.1566 102.359 57.2184C102.293 57.2802 102.236 57.3354 102.187 57.384L102.187 59.1457C102.183 59.2472 102.153 59.3234 102.098 59.3742C102.043 59.4249 101.982 59.4503 101.916 59.4503C101.854 59.4503 101.796 59.4272 101.743 59.3808C101.69 59.3344 101.657 59.2627 101.644 59.1655L101.644 57.3575C101.644 57.3487 101.643 57.3387 101.641 57.3277C101.639 57.3167 101.638 57.3067 101.638 57.2979C101.638 57.2891 101.639 57.2791 101.641 57.2681C101.643 57.2571 101.644 57.2471 101.644 57.2383L101.644 57.0462C101.626 57.0374 101.611 57.0308 101.598 57.0264Z" fill="#1b1b1b" fill-rule="nonzero" opacity="1" stroke="none"/>
<path d="M106.214 58.8477C106.174 58.7682 106.161 58.6964 106.174 58.6324C106.187 58.5684 106.215 58.5176 106.257 58.4801C106.299 58.4426 106.353 58.4238 106.419 58.4238C106.485 58.4238 106.554 58.4481 106.625 58.4966C106.726 58.6247 106.846 58.724 106.985 58.7947C107.125 58.8653 107.274 58.9073 107.433 58.9205L107.572 58.8808C107.607 58.8543 107.631 58.8366 107.644 58.8278C107.658 58.819 107.668 58.8112 107.674 58.8046C107.681 58.798 107.69 58.788 107.701 58.7748C107.712 58.7616 107.731 58.7373 107.757 58.7019C107.766 58.6843 107.772 58.6666 107.777 58.649C107.781 58.6313 107.788 58.6114 107.797 58.5894C107.797 58.5673 107.798 58.5474 107.8 58.5298C107.802 58.5121 107.803 58.4922 107.803 58.4701L107.764 58.3509C107.75 58.3333 107.736 58.3156 107.721 58.298C107.705 58.2803 107.691 58.2626 107.678 58.245C107.567 58.1743 107.457 58.1236 107.346 58.0926C107.236 58.0617 107.129 58.0297 107.025 57.9966C106.921 57.9635 106.82 57.9205 106.721 57.8675C106.621 57.8145 106.527 57.7284 106.439 57.6092C106.355 57.5032 106.31 57.3807 106.303 57.2416C106.297 57.1025 106.319 56.969 106.37 56.8409C106.42 56.7129 106.495 56.5992 106.595 56.4998C106.694 56.4005 106.808 56.3376 106.936 56.3111C107.121 56.2669 107.31 56.2625 107.502 56.2978C107.694 56.3332 107.874 56.395 108.042 56.4833C108.121 56.5407 108.168 56.6058 108.181 56.6787C108.194 56.7515 108.184 56.8144 108.151 56.8674C108.118 56.9204 108.067 56.9579 107.999 56.98C107.93 57.0021 107.852 56.991 107.764 56.9469C107.658 56.8895 107.546 56.852 107.429 56.8343C107.312 56.8166 107.194 56.8166 107.075 56.8343C107.062 56.8431 107.047 56.8498 107.032 56.8542C107.016 56.8586 107.002 56.8652 106.989 56.874C106.94 56.927 106.905 56.9789 106.883 57.0297C106.861 57.0805 106.852 57.1434 106.856 57.2184C106.861 57.2361 106.872 57.2626 106.889 57.2979C106.903 57.3156 106.916 57.331 106.929 57.3443C106.942 57.3575 106.956 57.373 106.969 57.3906C107.075 57.448 107.191 57.4933 107.317 57.5264C107.442 57.5595 107.565 57.597 107.684 57.639C107.803 57.6809 107.914 57.7361 108.015 57.8046C108.117 57.873 108.196 57.9734 108.254 58.1059C108.36 58.3576 108.376 58.5894 108.303 58.8013C108.231 59.0132 108.084 59.192 107.863 59.3377C107.806 59.3731 107.742 59.4029 107.671 59.4272C107.6 59.4514 107.534 59.4636 107.472 59.4636C107.234 59.4636 107 59.4095 106.77 59.3013C106.541 59.1931 106.355 59.0419 106.214 58.8477Z" fill="#1b1b1b" fill-rule="nonzero" opacity="1" stroke="none"/>
<path d="M108.863 57.7085C108.912 57.5672 108.971 57.4293 109.042 57.2946C109.113 57.1599 109.196 57.0374 109.294 56.927C109.391 56.8166 109.502 56.7217 109.628 56.6422C109.754 56.5628 109.894 56.5054 110.049 56.47C110.305 56.4126 110.529 56.4325 110.721 56.5296C110.913 56.6268 111.066 56.7659 111.181 56.9469C111.296 57.1279 111.372 57.3343 111.41 57.5661C111.447 57.7979 111.437 58.0198 111.38 58.2317C111.314 58.4922 111.197 58.7351 111.029 58.9602C110.861 59.1854 110.649 59.3488 110.393 59.4503C110.203 59.5254 110.021 59.553 109.847 59.5331C109.672 59.5133 109.515 59.457 109.376 59.3642C109.237 59.2715 109.119 59.1501 109.022 59C108.925 58.8499 108.859 58.6799 108.823 58.49C108.801 58.3708 108.794 58.2538 108.8 58.139C108.807 58.0242 108.821 57.9094 108.843 57.7946L108.863 57.7085ZM109.38 57.8608C109.362 57.9536 109.35 58.0386 109.343 58.1158C109.337 58.1931 109.34 58.2803 109.353 58.3774C109.366 58.4966 109.404 58.6037 109.466 58.6986C109.528 58.7936 109.603 58.8664 109.691 58.9172C109.779 58.968 109.877 58.9923 109.986 58.99C110.094 58.9878 110.203 58.9536 110.313 58.8874C110.459 58.7991 110.575 58.6843 110.661 58.543C110.747 58.4017 110.812 58.2494 110.857 58.086C110.892 57.9536 110.9 57.8123 110.88 57.6622C110.86 57.512 110.815 57.3796 110.744 57.2648C110.673 57.15 110.578 57.0672 110.459 57.0164C110.34 56.9657 110.199 56.9734 110.035 57.0396C109.859 57.1147 109.72 57.2273 109.618 57.3774C109.517 57.5275 109.437 57.6887 109.38 57.8608Z" fill="#1b1b1b" fill-rule="nonzero" opacity="1" stroke="none"/>
<path d="M114.671 58.8741C114.72 58.936 114.744 59.0044 114.744 59.0795C114.744 59.1545 114.72 59.2152 114.671 59.2616C114.623 59.3079 114.563 59.3311 114.492 59.3311C114.395 59.3311 114.311 59.2859 114.241 59.1954C114.17 59.1048 114.111 59.0022 114.062 58.8874C113.947 59.011 113.813 59.1159 113.658 59.202C113.503 59.2881 113.345 59.3311 113.181 59.3311C113.062 59.3311 112.947 59.3101 112.837 59.2682C112.726 59.2263 112.624 59.1689 112.529 59.096C112.434 59.0232 112.35 58.9382 112.277 58.841C112.204 58.7439 112.15 58.6423 112.115 58.5364C112.08 58.4216 112.055 58.2946 112.042 58.1556C112.029 58.0165 112.022 57.8719 112.022 57.7218C112.022 57.5407 112.027 57.3641 112.035 57.1919C112.044 57.0197 112.049 56.8674 112.049 56.735C112.071 56.6467 112.106 56.5804 112.155 56.5363C112.203 56.4921 112.258 56.47 112.32 56.47C112.378 56.47 112.432 56.4899 112.482 56.5296C112.533 56.5694 112.57 56.6312 112.592 56.7151C112.592 56.9226 112.588 57.1224 112.582 57.3145C112.575 57.5065 112.572 57.7107 112.572 57.9271C112.572 58.1743 112.625 58.3774 112.731 58.5364C112.837 58.6953 112.98 58.7748 113.161 58.7748C113.228 58.7748 113.294 58.7616 113.36 58.7351C113.426 58.7086 113.488 58.6733 113.545 58.6291C113.603 58.5849 113.656 58.5342 113.704 58.4768C113.753 58.4194 113.797 58.362 113.837 58.3046C113.846 58.2957 113.857 58.288 113.87 58.2814C113.883 58.2748 113.894 58.267 113.903 58.2582C113.877 58.0375 113.863 57.8145 113.863 57.5893C113.863 57.4613 113.864 57.3321 113.867 57.2019C113.869 57.0716 113.88 56.9524 113.9 56.8442C113.92 56.7361 113.953 56.6478 113.999 56.5793C114.045 56.5109 114.111 56.4767 114.194 56.4767C114.261 56.4767 114.32 56.5021 114.373 56.5528C114.426 56.6036 114.453 56.6776 114.453 56.7747C114.453 56.8762 114.445 56.9999 114.43 57.1456C114.414 57.2913 114.406 57.4436 114.406 57.6026C114.406 57.7262 114.411 57.8498 114.42 57.9734C114.428 58.0971 114.443 58.2152 114.463 58.3278C114.483 58.4403 114.509 58.543 114.542 58.6357C114.575 58.7284 114.618 58.8079 114.671 58.8741Z" fill="#1b1b1b" fill-rule="nonzero" opacity="1" stroke="none"/>
<path d="M116.148 59.0132C116.228 59.0706 116.274 59.1357 116.287 59.2086C116.301 59.2814 116.291 59.3444 116.257 59.3974C116.224 59.4503 116.174 59.4879 116.105 59.5099C116.037 59.532 115.958 59.521 115.87 59.4768C115.83 59.4503 115.791 59.4238 115.751 59.3974C115.711 59.3709 115.669 59.3444 115.625 59.3179C115.585 59.2826 115.559 59.2494 115.546 59.2185C115.532 59.1876 115.521 59.1435 115.512 59.0861L115.512 55.4104C115.53 55.3265 115.564 55.2625 115.615 55.2183C115.666 55.1742 115.719 55.151 115.774 55.1488C115.829 55.1466 115.883 55.1653 115.936 55.2051C115.989 55.2448 116.029 55.3066 116.055 55.3905L116.055 58.9536C116.069 58.9624 116.083 58.9724 116.099 58.9834C116.114 58.9945 116.131 59.0044 116.148 59.0132Z" fill="#1b1b1b" fill-rule="nonzero" opacity="1" stroke="none"/>
<path d="M120.864 58.9404C120.864 58.9978 120.848 59.053 120.817 59.1059C120.786 59.1589 120.747 59.2064 120.698 59.2483C120.65 59.2903 120.595 59.3234 120.536 59.3477C120.476 59.372 120.416 59.3841 120.354 59.3841C120.137 59.3841 120.029 59.2362 120.029 58.9404C120.029 58.883 120.045 58.8289 120.076 58.7781C120.106 58.7273 120.145 58.6821 120.191 58.6423C120.238 58.6026 120.291 58.5717 120.35 58.5496C120.41 58.5275 120.469 58.5165 120.526 58.5165C120.751 58.5165 120.864 58.6578 120.864 58.9404ZM119.486 58.947C119.486 59 119.473 59.0552 119.446 59.1126C119.42 59.17 119.386 59.2207 119.344 59.2649C119.302 59.309 119.253 59.3455 119.198 59.3742C119.143 59.4029 119.089 59.4172 119.036 59.4172C118.983 59.4172 118.936 59.4029 118.897 59.3742C118.857 59.3455 118.823 59.3079 118.794 59.2616C118.765 59.2152 118.744 59.1644 118.731 59.1093C118.718 59.0541 118.711 59 118.711 58.947C118.711 58.894 118.726 58.8432 118.754 58.7947C118.783 58.7461 118.819 58.7031 118.864 58.6655C118.908 58.628 118.959 58.5982 119.016 58.5761C119.073 58.554 119.128 58.543 119.181 58.543C119.385 58.543 119.486 58.6777 119.486 58.947ZM118.241 58.9669C118.241 59.0949 118.195 59.1998 118.102 59.2814C118.009 59.3631 117.901 59.404 117.777 59.404C117.574 59.404 117.473 59.2649 117.473 58.9867C117.473 58.8631 117.514 58.7538 117.595 58.6589C117.677 58.564 117.777 58.5165 117.897 58.5165C118.126 58.5165 118.241 58.6666 118.241 58.9669Z" fill="#1b1b1b" fill-rule="nonzero" opacity="1" stroke="none"/>
<path d="M122.215 59.2252C122.14 59.2693 122.069 59.2881 122.003 59.2814C121.937 59.2748 121.884 59.2516 121.844 59.2119C121.804 59.1722 121.781 59.1192 121.774 59.053C121.768 58.9867 121.786 58.9161 121.831 58.841L121.85 58.8212L121.85 55.3773C121.868 55.2934 121.902 55.2294 121.953 55.1852C122.004 55.1411 122.057 55.1179 122.112 55.1157C122.167 55.1135 122.221 55.1322 122.274 55.172C122.327 55.2117 122.367 55.2735 122.394 55.3574L122.394 56.9336C122.491 56.8409 122.594 56.7681 122.705 56.7151C122.806 56.6577 122.902 56.6169 122.993 56.5926C123.083 56.5683 123.186 56.5495 123.301 56.5363C123.416 56.5186 123.524 56.5296 123.625 56.5694C123.727 56.6091 123.826 56.6577 123.923 56.7151C124.051 56.7901 124.149 56.8939 124.215 57.0264C124.281 57.1588 124.327 57.3012 124.354 57.4535C124.38 57.6059 124.391 57.7604 124.387 57.9171C124.383 58.0739 124.369 58.2141 124.347 58.3377C124.338 58.4083 124.319 58.4757 124.288 58.5397C124.257 58.6037 124.224 58.6666 124.188 58.7284C124.127 58.8521 124.043 58.9569 123.937 59.043C123.831 59.1291 123.713 59.1976 123.582 59.2483C123.452 59.2991 123.317 59.3344 123.178 59.3543C123.039 59.3742 122.908 59.3797 122.784 59.3709C122.683 59.362 122.586 59.3466 122.493 59.3245C122.4 59.3024 122.31 59.2649 122.221 59.2119C122.221 59.2163 122.219 59.2207 122.215 59.2252ZM122.394 57.7549L122.394 58.6821C122.407 58.6909 122.431 58.7042 122.466 58.7218C122.475 58.7306 122.484 58.7373 122.493 58.7417C122.502 58.7461 122.511 58.7527 122.519 58.7616C122.749 58.8499 122.968 58.8653 123.175 58.8079C123.383 58.7505 123.566 58.6291 123.725 58.4437C123.769 58.3377 123.801 58.2395 123.821 58.1489C123.841 58.0584 123.851 57.9679 123.851 57.8774C123.851 57.7869 123.842 57.6953 123.824 57.6026C123.806 57.5098 123.778 57.4105 123.738 57.3045C123.716 57.2824 123.697 57.2593 123.682 57.235C123.666 57.2107 123.647 57.1875 123.625 57.1654C123.603 57.1566 123.582 57.1456 123.562 57.1323C123.543 57.1191 123.522 57.108 123.5 57.0992C123.478 57.0948 123.453 57.0904 123.427 57.086C123.4 57.0816 123.376 57.0771 123.354 57.0727C123.142 57.108 122.968 57.1798 122.831 57.288C122.694 57.3961 122.566 57.5341 122.447 57.7019L122.394 57.7549Z" fill="#1b1b1b" fill-rule="nonzero" opacity="1" stroke="none"/>
<path d="M127.672 58.8741C127.721 58.936 127.745 59.0044 127.745 59.0795C127.745 59.1545 127.721 59.2152 127.672 59.2616C127.623 59.3079 127.564 59.3311 127.493 59.3311C127.396 59.3311 127.312 59.2859 127.241 59.1954C127.171 59.1048 127.111 59.0022 127.063 58.8874C126.948 59.011 126.813 59.1159 126.659 59.202C126.504 59.2881 126.345 59.3311 126.182 59.3311C126.063 59.3311 125.948 59.3101 125.837 59.2682C125.727 59.2263 125.624 59.1689 125.529 59.096C125.435 59.0232 125.351 58.9382 125.278 58.841C125.205 58.7439 125.151 58.6423 125.116 58.5364C125.08 58.4216 125.056 58.2946 125.043 58.1556C125.029 58.0165 125.023 57.8719 125.023 57.7218C125.023 57.5407 125.027 57.3641 125.036 57.1919C125.045 57.0197 125.049 56.8674 125.049 56.735C125.071 56.6467 125.107 56.5804 125.155 56.5363C125.204 56.4921 125.259 56.47 125.321 56.47C125.378 56.47 125.432 56.4899 125.483 56.5296C125.534 56.5694 125.57 56.6312 125.592 56.7151C125.592 56.9226 125.589 57.1224 125.582 57.3145C125.576 57.5065 125.573 57.7107 125.573 57.9271C125.573 58.1743 125.626 58.3774 125.731 58.5364C125.837 58.6953 125.981 58.7748 126.162 58.7748C126.228 58.7748 126.294 58.7616 126.361 58.7351C126.427 58.7086 126.489 58.6733 126.546 58.6291C126.603 58.5849 126.656 58.5342 126.705 58.4768C126.754 58.4194 126.798 58.362 126.838 58.3046C126.846 58.2957 126.857 58.288 126.871 58.2814C126.884 58.2748 126.895 58.267 126.904 58.2582C126.877 58.0375 126.864 57.8145 126.864 57.5893C126.864 57.4613 126.865 57.3321 126.867 57.2019C126.87 57.0716 126.881 56.9524 126.9 56.8442C126.92 56.7361 126.953 56.6478 127 56.5793C127.046 56.5109 127.111 56.4767 127.195 56.4767C127.261 56.4767 127.321 56.5021 127.374 56.5528C127.427 56.6036 127.453 56.6776 127.453 56.7747C127.453 56.8762 127.446 56.9999 127.43 57.1456C127.415 57.2913 127.407 57.4436 127.407 57.6026C127.407 57.7262 127.411 57.8498 127.42 57.9734C127.429 58.0971 127.443 58.2152 127.463 58.3278C127.483 58.4403 127.51 58.543 127.543 58.6357C127.576 58.7284 127.619 58.8079 127.672 58.8741Z" fill="#1b1b1b" fill-rule="nonzero" opacity="1" stroke="none"/>
<path d="M128.275 56.9999C128.178 56.9866 128.106 56.9535 128.059 56.9005C128.013 56.8475 127.99 56.7901 127.99 56.7283C127.99 56.6665 128.015 56.6058 128.066 56.5462C128.117 56.4866 128.193 56.4568 128.295 56.4568L128.665 56.4568L128.665 55.4104C128.687 55.3221 128.723 55.2559 128.771 55.2117C128.82 55.1675 128.875 55.1455 128.937 55.1455C128.994 55.1455 129.048 55.1653 129.099 55.2051C129.15 55.2448 129.186 55.3066 129.208 55.3905L129.208 56.4568L129.844 56.4568C129.928 56.4789 129.99 56.5153 130.03 56.5661C130.069 56.6169 130.089 56.6709 130.089 56.7283C130.089 56.7901 130.067 56.8453 130.023 56.8939C129.979 56.9425 129.913 56.9778 129.824 56.9999L129.208 56.9999C129.204 57.3398 129.204 57.6898 129.208 58.0496C129.213 58.4094 129.215 58.7593 129.215 59.0993C129.215 59.2009 129.185 59.277 129.126 59.3278C129.066 59.3786 129.005 59.404 128.944 59.404C128.882 59.404 128.824 59.3808 128.771 59.3344C128.718 59.2881 128.685 59.2163 128.672 59.1192C128.672 58.7748 128.671 58.4216 128.669 58.0595C128.667 57.6975 128.665 57.3443 128.665 56.9999L128.275 56.9999Z" fill="#1b1b1b" fill-rule="nonzero" opacity="1" stroke="none"/>
<path d="M132.738 58.8477C132.699 58.7682 132.685 58.6964 132.699 58.6324C132.712 58.5684 132.74 58.5176 132.782 58.4801C132.823 58.4426 132.878 58.4238 132.944 58.4238C133.01 58.4238 133.078 58.4481 133.149 58.4966C133.251 58.6247 133.371 58.724 133.51 58.7947C133.649 58.8653 133.798 58.9073 133.957 58.9205L134.096 58.8808C134.131 58.8543 134.156 58.8366 134.169 58.8278C134.182 58.819 134.192 58.8112 134.199 58.8046C134.205 58.798 134.214 58.788 134.225 58.7748C134.236 58.7616 134.255 58.7373 134.282 58.7019C134.29 58.6843 134.297 58.6666 134.301 58.649C134.306 58.6313 134.313 58.6114 134.321 58.5894C134.321 58.5673 134.322 58.5474 134.325 58.5298C134.327 58.5121 134.328 58.4922 134.328 58.4701L134.288 58.3509C134.275 58.3333 134.261 58.3156 134.245 58.298C134.23 58.2803 134.215 58.2626 134.202 58.245C134.092 58.1743 133.981 58.1236 133.871 58.0926C133.761 58.0617 133.654 58.0297 133.55 57.9966C133.446 57.9635 133.344 57.9205 133.245 57.8675C133.146 57.8145 133.052 57.7284 132.964 57.6092C132.88 57.5032 132.835 57.3807 132.828 57.2416C132.821 57.1025 132.843 56.969 132.894 56.8409C132.945 56.7129 133.02 56.5992 133.119 56.4998C133.219 56.4005 133.332 56.3376 133.46 56.3111C133.646 56.2669 133.835 56.2625 134.027 56.2978C134.219 56.3332 134.399 56.395 134.566 56.4833C134.646 56.5407 134.692 56.6058 134.705 56.6787C134.719 56.7515 134.709 56.8144 134.676 56.8674C134.643 56.9204 134.592 56.9579 134.523 56.98C134.455 57.0021 134.377 56.991 134.288 56.9469C134.182 56.8895 134.071 56.852 133.954 56.8343C133.837 56.8166 133.719 56.8166 133.599 56.8343C133.586 56.8431 133.572 56.8498 133.556 56.8542C133.541 56.8586 133.527 56.8652 133.513 56.874C133.465 56.927 133.429 56.9789 133.407 57.0297C133.385 57.0805 133.376 57.1434 133.381 57.2184C133.385 57.2361 133.396 57.2626 133.414 57.2979C133.427 57.3156 133.44 57.331 133.454 57.3443C133.467 57.3575 133.48 57.373 133.493 57.3906C133.599 57.448 133.715 57.4933 133.841 57.5264C133.967 57.5595 134.09 57.597 134.209 57.639C134.328 57.6809 134.438 57.7361 134.54 57.8046C134.641 57.873 134.721 57.9734 134.778 58.1059C134.884 58.3576 134.901 58.5894 134.828 58.8013C134.755 59.0132 134.608 59.192 134.388 59.3377C134.33 59.3731 134.266 59.4029 134.196 59.4272C134.125 59.4514 134.059 59.4636 133.997 59.4636C133.758 59.4636 133.524 59.4095 133.295 59.3013C133.065 59.1931 132.88 59.0419 132.738 58.8477Z" fill="#1b1b1b" fill-rule="nonzero" opacity="1" stroke="none"/>
<path d="M135.606 56.9999C135.509 56.9866 135.437 56.9535 135.391 56.9005C135.345 56.8475 135.321 56.7901 135.321 56.7283C135.321 56.6665 135.347 56.6058 135.398 56.5462C135.448 56.4866 135.524 56.4568 135.626 56.4568L135.997 56.4568L135.997 55.4104C136.019 55.3221 136.054 55.2559 136.103 55.2117C136.151 55.1675 136.207 55.1455 136.268 55.1455C136.326 55.1455 136.38 55.1653 136.431 55.2051C136.481 55.2448 136.518 55.3066 136.54 55.3905L136.54 56.4568L137.176 56.4568C137.26 56.4789 137.321 56.5153 137.361 56.5661C137.401 56.6169 137.421 56.6709 137.421 56.7283C137.421 56.7901 137.399 56.8453 137.355 56.8939C137.31 56.9425 137.244 56.9778 137.156 56.9999L136.54 56.9999C136.536 57.3398 136.536 57.6898 136.54 58.0496C136.544 58.4094 136.547 58.7593 136.547 59.0993C136.547 59.2009 136.517 59.277 136.457 59.3278C136.398 59.3786 136.337 59.404 136.275 59.404C136.213 59.404 136.156 59.3808 136.103 59.3344C136.05 59.2881 136.017 59.2163 136.004 59.1192C136.004 58.7748 136.002 58.4216 136 58.0595C135.998 57.6975 135.997 57.3443 135.997 56.9999L135.606 56.9999Z" fill="#1b1b1b" fill-rule="nonzero" opacity="1" stroke="none"/>
<path d="M138.606 59.1192C138.602 59.2207 138.572 59.2969 138.517 59.3477C138.462 59.3985 138.401 59.4238 138.335 59.4238C138.273 59.4238 138.216 59.4007 138.163 59.3543C138.11 59.3079 138.077 59.2362 138.063 59.1391C138.059 58.724 138.056 58.3002 138.053 57.8675C138.051 57.4348 138.048 57.0109 138.043 56.5959C138.065 56.5076 138.101 56.4413 138.149 56.3972C138.198 56.353 138.253 56.331 138.315 56.331C138.372 56.331 138.426 56.3508 138.477 56.3906C138.528 56.4303 138.564 56.4921 138.586 56.576C138.591 56.991 138.594 57.4149 138.596 57.8476C138.599 58.2803 138.602 58.7042 138.606 59.1192ZM137.997 55.5164C137.997 55.4192 138.028 55.3364 138.09 55.268C138.152 55.1996 138.227 55.1653 138.315 55.1653C138.403 55.1653 138.479 55.1996 138.543 55.268C138.607 55.3364 138.639 55.4192 138.639 55.5164C138.639 55.6091 138.607 55.6896 138.543 55.7581C138.479 55.8265 138.403 55.8607 138.315 55.8607C138.227 55.8607 138.152 55.8265 138.09 55.7581C138.028 55.6896 137.997 55.6091 137.997 55.5164Z" fill="#1b1b1b" fill-rule="nonzero" opacity="1" stroke="none"/>
<path d="M140.229 59.0132C140.308 59.0706 140.355 59.1357 140.368 59.2086C140.381 59.2814 140.371 59.3444 140.338 59.3974C140.305 59.4503 140.254 59.4879 140.186 59.5099C140.117 59.532 140.039 59.521 139.951 59.4768C139.911 59.4503 139.871 59.4238 139.832 59.3974C139.792 59.3709 139.75 59.3444 139.706 59.3179C139.666 59.2826 139.639 59.2494 139.626 59.2185C139.613 59.1876 139.602 59.1435 139.593 59.0861L139.593 55.4104C139.611 55.3265 139.645 55.2625 139.696 55.2183C139.747 55.1742 139.8 55.151 139.855 55.1488C139.91 55.1466 139.964 55.1653 140.017 55.2051C140.07 55.2448 140.11 55.3066 140.136 55.3905L140.136 58.9536C140.149 58.9624 140.164 58.9724 140.179 58.9834C140.195 58.9945 140.211 59.0044 140.229 59.0132Z" fill="#1b1b1b" fill-rule="nonzero" opacity="1" stroke="none"/>
<path d="M141.938 59.0132C142.017 59.0706 142.063 59.1357 142.077 59.2086C142.09 59.2814 142.08 59.3444 142.047 59.3974C142.014 59.4503 141.963 59.4879 141.895 59.5099C141.826 59.532 141.748 59.521 141.659 59.4768C141.62 59.4503 141.58 59.4238 141.54 59.3974C141.501 59.3709 141.459 59.3444 141.414 59.3179C141.375 59.2826 141.348 59.2494 141.335 59.2185C141.322 59.1876 141.311 59.1435 141.302 59.0861L141.302 55.4104C141.319 55.3265 141.354 55.2625 141.404 55.2183C141.455 55.1742 141.508 55.151 141.563 55.1488C141.619 55.1466 141.673 55.1653 141.726 55.2051C141.779 55.2448 141.818 55.3066 141.845 55.3905L141.845 58.9536C141.858 58.9624 141.873 58.9724 141.888 58.9834C141.903 58.9945 141.92 59.0044 141.938 59.0132Z" fill="#1b1b1b" fill-rule="nonzero" opacity="1" stroke="none"/>
</g>
</g>
</g>
</svg>
